<?xml version="1.0" encoding="utf-8"?>
<!-- Generator: Adobe Illustrator 15.0.0, SVG Export Plug-In . SVG Version: 6.00 Build 0)  -->
<!DOCTYPE svg PUBLIC "-//W3C//DTD SVG 1.1//EN" "http://www.w3.org/Graphics/SVG/1.1/DTD/svg11.dtd">
<svg version="1.1" id="Layer_1" xmlns="http://www.w3.org/2000/svg" xmlns:xlink="http://www.w3.org/1999/xlink" x="0px" y="0px"
	 width="612px" height="792px" viewBox="0 0 612 792" enable-background="new 0 0 612 792" xml:space="preserve">
<g>
	<defs>
		<rect id="SVGID_1_" y="131.183" width="612" height="529.633"/>
	</defs>
	<clipPath id="SVGID_2_">
		<use xlink:href="#SVGID_1_"  overflow="visible"/>
	</clipPath>
	<g clip-path="url(#SVGID_2_)">
		<path fill-opacity="0" d="M0,131.183h612.631v530.526H0V131.183z"/>
		<path fill="#FFFFFF" d="M-12.591,127.691h629.428v534.016H-12.591V127.691z"/>
		<path fill="#CFE2F3" d="M38.948,192.937L38.948,192.937c0-6.782,37.23-12.28,83.157-12.28s83.157,5.498,83.157,12.28v49.123
			c0,6.782-37.23,12.281-83.157,12.281s-83.157-5.499-83.157-12.281V192.937z"/>
		<path fill-opacity="0" d="M205.262,192.937L205.262,192.937c0,6.783-37.23,12.281-83.157,12.281s-83.157-5.498-83.157-12.281"/>
		<path fill-opacity="0" d="M38.948,192.937L38.948,192.937c0-6.782,37.23-12.28,83.157-12.28s83.157,5.498,83.157,12.28v49.123
			c0,6.782-37.23,12.281-83.157,12.281s-83.157-5.499-83.157-12.281V192.937z"/>
		<path fill="none" stroke="#000000" stroke-width="2" stroke-linejoin="round" stroke-miterlimit="10" d="M205.262,192.937
			L205.262,192.937c0,6.783-37.23,12.281-83.157,12.281s-83.157-5.498-83.157-12.281"/>
		<path fill="none" stroke="#000000" stroke-width="2" stroke-linejoin="round" stroke-miterlimit="10" d="M38.948,192.937
			L38.948,192.937c0-6.782,37.23-12.28,83.157-12.28s83.157,5.498,83.157,12.28v49.123c0,6.782-37.23,12.281-83.157,12.281
			s-83.157-5.499-83.157-12.281V192.937z"/>
		<path fill-opacity="0" d="M10.87,209.007h224.218v55.775H10.87V209.007z"/>
		<path d="M48.255,222.282v-1.451h1.257v1.451H48.255z M48.255,231.112v-7.453h1.257v7.453H48.255z M51.359,231.112v-7.453h1.137
			v1.047c0.229-0.369,0.539-0.663,0.928-0.883c0.389-0.219,0.833-0.329,1.332-0.329c0.549,0,0.998,0.115,1.347,0.344
			c0.359,0.229,0.609,0.549,0.749,0.958c0.588-0.868,1.356-1.302,2.304-1.302c0.738,0,1.307,0.205,1.706,0.614
			c0.399,0.409,0.599,1.037,0.599,1.885v5.118h-1.257v-4.699c0-0.499-0.04-0.858-0.12-1.077c-0.08-0.229-0.229-0.409-0.449-0.539
			c-0.219-0.14-0.474-0.209-0.763-0.209c-0.519,0-0.953,0.175-1.302,0.524s-0.524,0.908-0.524,1.676v4.325h-1.257v-4.833
			c0-0.569-0.105-0.993-0.314-1.272c-0.2-0.279-0.534-0.419-1.002-0.419c-0.359,0-0.688,0.095-0.988,0.284
			c-0.299,0.19-0.519,0.464-0.659,0.823c-0.129,0.359-0.194,0.878-0.194,1.557v3.861H51.359z M63.052,233.97v-10.311h1.152v0.973
			c0.27-0.379,0.574-0.663,0.913-0.853c0.35-0.189,0.769-0.284,1.257-0.284c0.628,0,1.187,0.165,1.676,0.494
			c0.489,0.33,0.853,0.793,1.093,1.392c0.249,0.589,0.374,1.237,0.374,1.946c0,0.768-0.135,1.457-0.404,2.065
			c-0.269,0.608-0.668,1.078-1.197,1.407c-0.519,0.319-1.068,0.479-1.646,0.479c-0.419,0-0.798-0.085-1.137-0.254
			c-0.329-0.18-0.599-0.409-0.808-0.688v3.636H63.052z M64.204,227.43c0,0.958,0.194,1.667,0.583,2.125
			c0.389,0.459,0.858,0.688,1.407,0.688c0.559,0,1.038-0.234,1.437-0.703c0.399-0.479,0.599-1.217,0.599-2.215
			c0-0.948-0.194-1.656-0.583-2.125c-0.389-0.479-0.853-0.718-1.392-0.718c-0.539,0-1.018,0.254-1.437,0.763
			C64.409,225.744,64.204,226.473,64.204,227.43z M70.843,231.112v-7.453h1.138v1.137c0.289-0.529,0.559-0.878,0.808-1.047
			s0.519-0.254,0.808-0.254c0.429,0,0.863,0.135,1.302,0.404l-0.434,1.167c-0.309-0.18-0.618-0.27-0.928-0.27
			c-0.279,0-0.529,0.085-0.748,0.254c-0.22,0.16-0.374,0.389-0.464,0.688c-0.14,0.449-0.209,0.938-0.209,1.467v3.906H70.843z
			 M80.636,228.717l1.302,0.15c-0.2,0.768-0.579,1.361-1.138,1.781c-0.559,0.419-1.272,0.628-2.14,0.628
			c-1.087,0-1.951-0.334-2.589-1.003c-0.639-0.668-0.958-1.611-0.958-2.828c0-1.247,0.324-2.215,0.973-2.903
			c0.648-0.698,1.487-1.047,2.514-1.047c0.998,0,1.811,0.339,2.439,1.018s0.943,1.631,0.943,2.858c0,0.08,0,0.194,0,0.344h-5.567
			c0.05,0.818,0.279,1.446,0.688,1.885c0.419,0.429,0.943,0.644,1.571,0.644c0.459,0,0.853-0.12,1.183-0.359
			C80.187,229.635,80.446,229.246,80.636,228.717z M76.491,226.667h4.16c-0.06-0.628-0.22-1.097-0.479-1.407
			c-0.399-0.489-0.918-0.733-1.556-0.733c-0.589,0-1.083,0.194-1.481,0.583C76.745,225.5,76.531,226.019,76.491,226.667z
			 M82.846,228.882l1.242-0.194c0.07,0.499,0.264,0.883,0.583,1.152c0.319,0.269,0.768,0.404,1.347,0.404s1.008-0.115,1.287-0.344
			c0.279-0.239,0.419-0.519,0.419-0.838c0-0.29-0.125-0.514-0.374-0.673c-0.169-0.12-0.599-0.265-1.287-0.434
			c-0.928-0.229-1.571-0.429-1.93-0.599c-0.349-0.18-0.619-0.419-0.808-0.718c-0.18-0.299-0.27-0.633-0.27-1.002
			c0-0.33,0.075-0.634,0.225-0.913c0.149-0.289,0.354-0.524,0.613-0.703c0.2-0.15,0.469-0.274,0.808-0.375
			c0.339-0.1,0.704-0.149,1.093-0.149c0.579,0,1.087,0.085,1.526,0.254c0.449,0.169,0.778,0.399,0.988,0.688
			c0.209,0.279,0.354,0.663,0.434,1.152l-1.227,0.165c-0.06-0.389-0.225-0.688-0.494-0.898c-0.27-0.22-0.648-0.329-1.137-0.329
			c-0.579,0-0.993,0.1-1.242,0.299c-0.25,0.189-0.374,0.414-0.374,0.673c0,0.16,0.05,0.304,0.149,0.434
			c0.11,0.14,0.274,0.255,0.494,0.345c0.12,0.04,0.489,0.145,1.107,0.314c0.898,0.239,1.521,0.434,1.871,0.583
			c0.359,0.15,0.639,0.374,0.838,0.674c0.199,0.289,0.299,0.648,0.299,1.077c0,0.419-0.125,0.813-0.375,1.182
			c-0.239,0.369-0.593,0.659-1.062,0.868c-0.458,0.2-0.982,0.299-1.571,0.299c-0.967,0-1.706-0.2-2.214-0.599
			C83.305,230.279,82.985,229.68,82.846,228.882z M89.864,228.882l1.242-0.194c0.07,0.499,0.264,0.883,0.583,1.152
			c0.319,0.269,0.768,0.404,1.347,0.404s1.008-0.115,1.287-0.344c0.279-0.239,0.419-0.519,0.419-0.838
			c0-0.29-0.125-0.514-0.374-0.673c-0.169-0.12-0.599-0.265-1.287-0.434c-0.928-0.229-1.571-0.429-1.93-0.599
			c-0.349-0.18-0.619-0.419-0.808-0.718c-0.18-0.299-0.27-0.633-0.27-1.002c0-0.33,0.075-0.634,0.225-0.913
			c0.149-0.289,0.354-0.524,0.613-0.703c0.2-0.15,0.469-0.274,0.808-0.375c0.339-0.1,0.704-0.149,1.093-0.149
			c0.579,0,1.087,0.085,1.526,0.254c0.449,0.169,0.778,0.399,0.987,0.688c0.209,0.279,0.354,0.663,0.434,1.152l-1.227,0.165
			c-0.06-0.389-0.225-0.688-0.494-0.898c-0.27-0.22-0.648-0.329-1.138-0.329c-0.579,0-0.993,0.1-1.242,0.299
			c-0.25,0.189-0.375,0.414-0.375,0.673c0,0.16,0.05,0.304,0.15,0.434c0.11,0.14,0.274,0.255,0.494,0.345
			c0.12,0.04,0.489,0.145,1.107,0.314c0.898,0.239,1.521,0.434,1.871,0.583c0.359,0.15,0.639,0.374,0.838,0.674
			c0.199,0.289,0.299,0.648,0.299,1.077c0,0.419-0.125,0.813-0.375,1.182c-0.239,0.369-0.593,0.659-1.062,0.868
			c-0.459,0.2-0.982,0.299-1.571,0.299c-0.968,0-1.706-0.2-2.215-0.599C90.323,230.279,90.004,229.68,89.864,228.882z
			 M97.392,222.282v-1.451h1.257v1.451H97.392z M97.392,231.112v-7.453h1.257v7.453H97.392z M100.031,227.385
			c0-1.376,0.384-2.399,1.152-3.068c0.638-0.548,1.417-0.823,2.334-0.823c1.027,0,1.866,0.334,2.514,1.002s0.973,1.597,0.973,2.784
			c0,0.958-0.145,1.711-0.434,2.26c-0.279,0.548-0.698,0.978-1.257,1.287c-0.549,0.299-1.147,0.449-1.796,0.449
			c-1.038,0-1.881-0.334-2.529-1.003C100.351,229.605,100.031,228.643,100.031,227.385z M101.333,227.385
			c0,0.958,0.205,1.676,0.614,2.155c0.419,0.469,0.943,0.703,1.571,0.703s1.152-0.239,1.571-0.718s0.628-1.207,0.628-2.185
			c0-0.918-0.209-1.611-0.628-2.081c-0.419-0.479-0.943-0.718-1.571-0.718s-1.152,0.234-1.571,0.704
			C101.538,225.714,101.333,226.428,101.333,227.385z M108.302,231.112v-7.453h1.137v1.062c0.549-0.818,1.342-1.227,2.379-1.227
			c0.449,0,0.858,0.08,1.227,0.239c0.379,0.16,0.664,0.375,0.853,0.644c0.19,0.259,0.319,0.569,0.389,0.928
			c0.05,0.229,0.075,0.639,0.075,1.227v4.58h-1.272v-4.535c0-0.509-0.05-0.888-0.149-1.137c-0.09-0.259-0.259-0.464-0.509-0.613
			c-0.25-0.16-0.544-0.24-0.883-0.24c-0.539,0-1.003,0.17-1.392,0.509c-0.389,0.339-0.583,0.988-0.583,1.945v4.071H108.302z
			 M115.615,228.882l1.242-0.194c0.07,0.499,0.264,0.883,0.583,1.152c0.319,0.269,0.768,0.404,1.347,0.404s1.008-0.115,1.287-0.344
			c0.279-0.239,0.419-0.519,0.419-0.838c0-0.29-0.125-0.514-0.374-0.673c-0.169-0.12-0.599-0.265-1.287-0.434
			c-0.928-0.229-1.571-0.429-1.93-0.599c-0.35-0.18-0.619-0.419-0.808-0.718c-0.18-0.299-0.27-0.633-0.27-1.002
			c0-0.33,0.075-0.634,0.225-0.913c0.149-0.289,0.354-0.524,0.613-0.703c0.2-0.15,0.469-0.274,0.808-0.375
			c0.339-0.1,0.704-0.149,1.092-0.149c0.579,0,1.088,0.085,1.527,0.254c0.449,0.169,0.778,0.399,0.987,0.688
			c0.209,0.279,0.354,0.663,0.434,1.152l-1.227,0.165c-0.06-0.389-0.225-0.688-0.494-0.898c-0.27-0.22-0.648-0.329-1.138-0.329
			c-0.579,0-0.993,0.1-1.242,0.299c-0.25,0.189-0.375,0.414-0.375,0.673c0,0.16,0.05,0.304,0.15,0.434
			c0.11,0.14,0.274,0.255,0.494,0.345c0.12,0.04,0.489,0.145,1.107,0.314c0.898,0.239,1.521,0.434,1.871,0.583
			c0.359,0.15,0.639,0.374,0.838,0.674c0.2,0.289,0.299,0.648,0.299,1.077c0,0.419-0.125,0.813-0.374,1.182
			c-0.239,0.369-0.593,0.659-1.062,0.868c-0.459,0.2-0.982,0.299-1.571,0.299c-0.968,0-1.706-0.2-2.215-0.599
			C116.074,230.279,115.754,229.68,115.615,228.882z M122.633,228.029v-1.272h3.891v1.272H122.633z M134.086,229.899v1.212h-6.794
			c-0.01-0.299,0.04-0.594,0.15-0.883c0.169-0.458,0.444-0.913,0.823-1.361c0.389-0.449,0.943-0.968,1.661-1.557
			c1.118-0.918,1.871-1.641,2.26-2.17c0.399-0.539,0.599-1.047,0.599-1.526c0-0.499-0.18-0.918-0.539-1.257
			c-0.359-0.349-0.828-0.524-1.407-0.524c-0.609,0-1.098,0.185-1.467,0.554c-0.359,0.359-0.539,0.863-0.539,1.511l-1.302-0.134
			c0.09-0.968,0.424-1.706,1.002-2.215s1.357-0.763,2.334-0.763c0.988,0,1.766,0.274,2.334,0.823
			c0.579,0.549,0.868,1.227,0.868,2.035c0,0.409-0.085,0.813-0.254,1.212c-0.16,0.399-0.439,0.818-0.838,1.257
			c-0.389,0.439-1.037,1.043-1.945,1.811c-0.758,0.628-1.247,1.057-1.466,1.287c-0.209,0.229-0.384,0.459-0.524,0.688H134.086z
			 M135.264,226.039c0-1.217,0.125-2.195,0.375-2.933c0.249-0.738,0.618-1.307,1.107-1.706c0.499-0.409,1.122-0.613,1.871-0.613
			c0.548,0,1.032,0.115,1.451,0.344c0.419,0.22,0.764,0.539,1.033,0.958c0.27,0.409,0.479,0.918,0.628,1.526
			c0.16,0.599,0.24,1.407,0.24,2.424c0,1.207-0.125,2.185-0.374,2.933c-0.25,0.738-0.624,1.312-1.123,1.721
			c-0.489,0.399-1.107,0.599-1.855,0.599c-0.988,0-1.766-0.359-2.334-1.077C135.603,229.366,135.264,227.974,135.264,226.039z
			 M136.566,226.039c0,1.686,0.194,2.809,0.583,3.367c0.399,0.559,0.888,0.838,1.467,0.838s1.062-0.279,1.451-0.838
			c0.399-0.559,0.599-1.681,0.599-3.367c0-1.696-0.199-2.818-0.599-3.367c-0.389-0.559-0.878-0.838-1.466-0.838
			c-0.579,0-1.042,0.245-1.392,0.733C136.78,223.195,136.566,224.353,136.566,226.039z M147.83,231.112h-1.272v-8.051
			c-0.299,0.29-0.699,0.583-1.197,0.883c-0.489,0.29-0.928,0.504-1.317,0.644v-1.227c0.698-0.329,1.312-0.728,1.84-1.197
			c0.529-0.469,0.903-0.928,1.123-1.376h0.823V231.112z M150.877,228.418l1.317-0.12c0.1,0.648,0.329,1.137,0.688,1.466
			c0.359,0.319,0.793,0.479,1.302,0.479c0.608,0,1.122-0.229,1.542-0.688c0.419-0.458,0.628-1.062,0.628-1.811
			c0-0.729-0.205-1.297-0.614-1.706c-0.399-0.419-0.928-0.628-1.586-0.628c-0.409,0-0.778,0.095-1.107,0.284
			c-0.319,0.18-0.574,0.414-0.763,0.704l-1.183-0.15l0.988-5.283h5.118v1.212h-4.101l-0.554,2.753
			c0.619-0.429,1.267-0.644,1.946-0.644c0.897,0,1.651,0.314,2.259,0.943c0.619,0.619,0.928,1.417,0.928,2.395
			c0,0.928-0.27,1.731-0.809,2.409c-0.658,0.838-1.556,1.257-2.693,1.257c-0.938,0-1.706-0.259-2.305-0.778
			C151.292,229.984,150.957,229.286,150.877,228.418z M158.534,228.029v-1.272h3.891v1.272H158.534z M163.358,226.039
			c0-1.217,0.125-2.195,0.374-2.933s0.619-1.307,1.107-1.706c0.499-0.409,1.123-0.613,1.871-0.613c0.549,0,1.033,0.115,1.452,0.344
			c0.419,0.22,0.763,0.539,1.033,0.958c0.269,0.409,0.479,0.918,0.628,1.526c0.16,0.599,0.239,1.407,0.239,2.424
			c0,1.207-0.125,2.185-0.374,2.933c-0.25,0.738-0.624,1.312-1.122,1.721c-0.489,0.399-1.107,0.599-1.856,0.599
			c-0.988,0-1.766-0.359-2.334-1.077C163.698,229.366,163.358,227.974,163.358,226.039z M164.66,226.039
			c0,1.686,0.195,2.809,0.584,3.367c0.399,0.559,0.888,0.838,1.466,0.838s1.062-0.279,1.452-0.838
			c0.399-0.559,0.599-1.681,0.599-3.367c0-1.696-0.2-2.818-0.599-3.367c-0.389-0.559-0.878-0.838-1.467-0.838
			c-0.579,0-1.042,0.245-1.392,0.733C164.875,223.195,164.66,224.353,164.66,226.039z M175.924,231.112h-1.272v-8.051
			c-0.299,0.29-0.698,0.583-1.197,0.883c-0.489,0.29-0.928,0.504-1.317,0.644v-1.227c0.698-0.329,1.312-0.728,1.841-1.197
			c0.529-0.469,0.903-0.928,1.123-1.376h0.823V231.112z M178.822,228.029v-1.272h3.891v1.272H178.822z M183.646,226.039
			c0-1.217,0.125-2.195,0.375-2.933c0.249-0.738,0.618-1.307,1.107-1.706c0.499-0.409,1.122-0.613,1.871-0.613
			c0.548,0,1.032,0.115,1.451,0.344c0.419,0.22,0.763,0.539,1.033,0.958c0.27,0.409,0.479,0.918,0.628,1.526
			c0.16,0.599,0.24,1.407,0.24,2.424c0,1.207-0.125,2.185-0.374,2.933c-0.25,0.738-0.624,1.312-1.123,1.721
			c-0.489,0.399-1.107,0.599-1.855,0.599c-0.988,0-1.766-0.359-2.334-1.077C183.985,229.366,183.646,227.974,183.646,226.039z
			 M184.948,226.039c0,1.686,0.194,2.809,0.583,3.367c0.399,0.559,0.888,0.838,1.467,0.838s1.062-0.279,1.451-0.838
			c0.399-0.559,0.599-1.681,0.599-3.367c0-1.696-0.199-2.818-0.599-3.367c-0.389-0.559-0.878-0.838-1.466-0.838
			c-0.579,0-1.042,0.245-1.392,0.733C185.163,223.195,184.948,224.353,184.948,226.039z M196.212,231.112h-1.272v-8.051
			c-0.299,0.29-0.699,0.583-1.197,0.883c-0.489,0.29-0.928,0.504-1.317,0.644v-1.227c0.698-0.329,1.312-0.728,1.84-1.197
			c0.529-0.469,0.903-0.928,1.123-1.376h0.823V231.112z"/>
		<path fill="#CFE2F3" d="M38.948,192.937L38.948,192.937c0-6.782,37.23-12.28,83.157-12.28s83.157,5.498,83.157,12.28v49.123
			c0,6.782-37.23,12.281-83.157,12.281s-83.157-5.499-83.157-12.281V192.937z"/>
		<path fill-opacity="0" d="M205.262,192.937L205.262,192.937c0,6.783-37.23,12.281-83.157,12.281s-83.157-5.498-83.157-12.281"/>
		<path fill-opacity="0" d="M38.948,192.937L38.948,192.937c0-6.782,37.23-12.28,83.157-12.28s83.157,5.498,83.157,12.28v49.123
			c0,6.782-37.23,12.281-83.157,12.281s-83.157-5.499-83.157-12.281V192.937z"/>
		<path fill="none" stroke="#000000" stroke-width="2" stroke-linejoin="round" stroke-miterlimit="10" d="M205.262,192.937
			L205.262,192.937c0,6.783-37.23,12.281-83.157,12.281s-83.157-5.498-83.157-12.281"/>
		<path fill="none" stroke="#000000" stroke-width="2" stroke-linejoin="round" stroke-miterlimit="10" d="M38.948,192.937
			L38.948,192.937c0-6.782,37.23-12.28,83.157-12.28s83.157,5.498,83.157,12.28v49.123c0,6.782-37.23,12.281-83.157,12.281
			s-83.157-5.499-83.157-12.281V192.937z"/>
		<path fill-opacity="0" d="M10.87,209.007h224.218v55.775H10.87V209.007z"/>
		<path d="M70.108,228.717l1.302,0.15c-0.2,0.768-0.579,1.361-1.137,1.781c-0.559,0.419-1.272,0.628-2.14,0.628
			c-1.087,0-1.95-0.334-2.589-1.003c-0.639-0.668-0.958-1.611-0.958-2.828c0-1.247,0.324-2.215,0.973-2.903
			c0.648-0.698,1.486-1.047,2.514-1.047c0.998,0,1.811,0.339,2.439,1.018s0.943,1.631,0.943,2.858c0,0.08,0,0.194,0,0.344h-5.567
			c0.05,0.818,0.279,1.446,0.688,1.885c0.419,0.429,0.942,0.644,1.571,0.644c0.458,0,0.853-0.12,1.182-0.359
			C69.659,229.635,69.918,229.246,70.108,228.717z M65.963,226.667h4.16c-0.06-0.628-0.219-1.097-0.479-1.407
			c-0.399-0.489-0.917-0.733-1.556-0.733c-0.588,0-1.083,0.194-1.481,0.583C66.217,225.5,66.003,226.019,65.963,226.667z
			 M74.892,231.112l-2.843-7.453h1.332l1.602,4.459c0.169,0.489,0.329,0.993,0.479,1.511c0.11-0.399,0.265-0.873,0.464-1.421
			l1.661-4.549h1.302l-2.829,7.453H74.892z M84.933,228.717l1.302,0.15c-0.2,0.768-0.579,1.361-1.137,1.781
			c-0.559,0.419-1.272,0.628-2.14,0.628c-1.087,0-1.951-0.334-2.589-1.003c-0.639-0.668-0.958-1.611-0.958-2.828
			c0-1.247,0.324-2.215,0.973-2.903c0.649-0.698,1.487-1.047,2.514-1.047c0.998,0,1.811,0.339,2.439,1.018s0.943,1.631,0.943,2.858
			c0,0.08,0,0.194,0,0.344h-5.567c0.05,0.818,0.279,1.446,0.688,1.885c0.419,0.429,0.942,0.644,1.571,0.644
			c0.458,0,0.853-0.12,1.182-0.359C84.484,229.635,84.744,229.246,84.933,228.717z M80.788,226.667h4.16
			c-0.06-0.628-0.219-1.097-0.479-1.407c-0.399-0.489-0.917-0.733-1.556-0.733c-0.589,0-1.083,0.194-1.481,0.583
			C81.042,225.5,80.828,226.019,80.788,226.667z M87.637,231.112v-7.453h1.137v1.062c0.549-0.818,1.342-1.227,2.379-1.227
			c0.449,0,0.858,0.08,1.227,0.239c0.379,0.16,0.664,0.375,0.853,0.644c0.189,0.259,0.319,0.569,0.389,0.928
			c0.05,0.229,0.075,0.639,0.075,1.227v4.58h-1.272v-4.535c0-0.509-0.05-0.888-0.15-1.137c-0.089-0.259-0.259-0.464-0.509-0.613
			c-0.249-0.16-0.543-0.24-0.883-0.24c-0.539,0-1.002,0.17-1.392,0.509c-0.389,0.339-0.583,0.988-0.583,1.945v4.071H87.637z
			 M98.212,229.989l0.179,1.107c-0.359,0.08-0.678,0.12-0.958,0.12c-0.459,0-0.818-0.075-1.078-0.224
			c-0.25-0.15-0.424-0.339-0.523-0.569c-0.1-0.24-0.15-0.738-0.15-1.497v-4.28h-0.928v-0.988h0.928v-1.841l1.257-0.763v2.604h1.272
			v0.988H96.94v4.354c0,0.359,0.02,0.594,0.06,0.704c0.05,0.1,0.125,0.18,0.225,0.239c0.1,0.06,0.239,0.09,0.419,0.09
			C97.793,230.034,97.983,230.019,98.212,229.989z M98.85,228.882l1.242-0.194c0.07,0.499,0.265,0.883,0.583,1.152
			c0.319,0.269,0.769,0.404,1.347,0.404s1.007-0.115,1.287-0.344c0.28-0.239,0.419-0.519,0.419-0.838
			c0-0.29-0.125-0.514-0.375-0.673c-0.169-0.12-0.598-0.265-1.287-0.434c-0.928-0.229-1.571-0.429-1.931-0.599
			c-0.349-0.18-0.619-0.419-0.808-0.718c-0.18-0.299-0.27-0.633-0.27-1.002c0-0.33,0.075-0.634,0.225-0.913
			c0.15-0.289,0.354-0.524,0.614-0.703c0.199-0.15,0.469-0.274,0.808-0.375c0.339-0.1,0.703-0.149,1.092-0.149
			c0.579,0,1.087,0.085,1.526,0.254c0.449,0.169,0.778,0.399,0.988,0.688c0.209,0.279,0.354,0.663,0.434,1.152l-1.227,0.165
			c-0.06-0.389-0.225-0.688-0.494-0.898c-0.269-0.22-0.648-0.329-1.137-0.329c-0.579,0-0.993,0.1-1.242,0.299
			c-0.25,0.189-0.374,0.414-0.374,0.673c0,0.16,0.05,0.304,0.149,0.434c0.11,0.14,0.274,0.255,0.494,0.345
			c0.12,0.04,0.489,0.145,1.107,0.314c0.898,0.239,1.521,0.434,1.871,0.583c0.359,0.15,0.638,0.374,0.838,0.674
			c0.2,0.289,0.299,0.648,0.299,1.077c0,0.419-0.125,0.813-0.374,1.182c-0.24,0.369-0.594,0.659-1.062,0.868
			c-0.459,0.2-0.983,0.299-1.571,0.299c-0.968,0-1.706-0.2-2.215-0.599C99.309,230.279,98.989,229.68,98.85,228.882z
			 M105.868,228.029v-1.272h3.891v1.272H105.868z M117.322,229.899v1.212h-6.794c-0.01-0.299,0.04-0.594,0.149-0.883
			c0.17-0.458,0.444-0.913,0.823-1.361c0.389-0.449,0.943-0.968,1.661-1.557c1.117-0.918,1.871-1.641,2.26-2.17
			c0.399-0.539,0.599-1.047,0.599-1.526c0-0.499-0.18-0.918-0.539-1.257c-0.359-0.349-0.828-0.524-1.407-0.524
			c-0.608,0-1.097,0.185-1.466,0.554c-0.359,0.359-0.539,0.863-0.539,1.511l-1.302-0.134c0.09-0.968,0.424-1.706,1.003-2.215
			s1.356-0.763,2.334-0.763c0.987,0,1.766,0.274,2.334,0.823c0.579,0.549,0.868,1.227,0.868,2.035c0,0.409-0.084,0.813-0.254,1.212
			c-0.16,0.399-0.439,0.818-0.838,1.257c-0.389,0.439-1.038,1.043-1.945,1.811c-0.758,0.628-1.247,1.057-1.467,1.287
			c-0.209,0.229-0.384,0.459-0.523,0.688H117.322z M118.499,226.039c0-1.217,0.125-2.195,0.374-2.933s0.619-1.307,1.107-1.706
			c0.499-0.409,1.123-0.613,1.871-0.613c0.549,0,1.033,0.115,1.452,0.344c0.419,0.22,0.763,0.539,1.033,0.958
			c0.269,0.409,0.479,0.918,0.628,1.526c0.16,0.599,0.239,1.407,0.239,2.424c0,1.207-0.125,2.185-0.374,2.933
			c-0.25,0.738-0.624,1.312-1.122,1.721c-0.489,0.399-1.107,0.599-1.856,0.599c-0.988,0-1.766-0.359-2.334-1.077
			C118.838,229.366,118.499,227.974,118.499,226.039z M119.801,226.039c0,1.686,0.195,2.809,0.584,3.367
			c0.399,0.559,0.888,0.838,1.466,0.838s1.062-0.279,1.452-0.838c0.399-0.559,0.599-1.681,0.599-3.367
			c0-1.696-0.2-2.818-0.599-3.367c-0.389-0.559-0.878-0.838-1.466-0.838c-0.579,0-1.043,0.245-1.392,0.733
			C120.016,223.195,119.801,224.353,119.801,226.039z M131.064,231.112h-1.272v-8.051c-0.299,0.29-0.698,0.583-1.197,0.883
			c-0.489,0.29-0.928,0.504-1.317,0.644v-1.227c0.699-0.329,1.312-0.728,1.841-1.197c0.529-0.469,0.903-0.928,1.123-1.376h0.823
			V231.112z M134.112,228.418l1.317-0.12c0.1,0.648,0.33,1.137,0.688,1.466c0.359,0.319,0.793,0.479,1.302,0.479
			c0.609,0,1.123-0.229,1.542-0.688c0.419-0.458,0.628-1.062,0.628-1.811c0-0.729-0.204-1.297-0.613-1.706
			c-0.399-0.419-0.928-0.628-1.586-0.628c-0.409,0-0.778,0.095-1.107,0.284c-0.319,0.18-0.574,0.414-0.763,0.704l-1.182-0.15
			l0.988-5.283h5.118v1.212h-4.1l-0.554,2.753c0.619-0.429,1.267-0.644,1.945-0.644c0.898,0,1.651,0.314,2.26,0.943
			c0.619,0.619,0.928,1.417,0.928,2.395c0,0.928-0.27,1.731-0.808,2.409c-0.658,0.838-1.556,1.257-2.694,1.257
			c-0.938,0-1.706-0.259-2.304-0.778C134.526,229.984,134.192,229.286,134.112,228.418z M141.77,228.029v-1.272h3.891v1.272H141.77z
			 M146.594,226.039c0-1.217,0.125-2.195,0.374-2.933s0.619-1.307,1.107-1.706c0.499-0.409,1.122-0.613,1.871-0.613
			c0.548,0,1.032,0.115,1.452,0.344c0.419,0.22,0.763,0.539,1.032,0.958c0.27,0.409,0.479,0.918,0.629,1.526
			c0.159,0.599,0.239,1.407,0.239,2.424c0,1.207-0.125,2.185-0.374,2.933c-0.25,0.738-0.624,1.312-1.123,1.721
			c-0.489,0.399-1.107,0.599-1.855,0.599c-0.988,0-1.766-0.359-2.334-1.077C146.933,229.366,146.594,227.974,146.594,226.039z
			 M147.896,226.039c0,1.686,0.194,2.809,0.583,3.367c0.399,0.559,0.888,0.838,1.467,0.838s1.062-0.279,1.452-0.838
			c0.399-0.559,0.599-1.681,0.599-3.367c0-1.696-0.2-2.818-0.599-3.367c-0.389-0.559-0.878-0.838-1.467-0.838
			c-0.579,0-1.042,0.245-1.392,0.733C148.11,223.195,147.896,224.353,147.896,226.039z M159.159,231.112h-1.272v-8.051
			c-0.299,0.29-0.699,0.583-1.197,0.883c-0.489,0.29-0.928,0.504-1.317,0.644v-1.227c0.698-0.329,1.312-0.728,1.841-1.197
			c0.528-0.469,0.903-0.928,1.122-1.376h0.823V231.112z M162.057,228.029v-1.272h3.891v1.272H162.057z M166.881,226.039
			c0-1.217,0.125-2.195,0.374-2.933s0.619-1.307,1.107-1.706c0.499-0.409,1.123-0.613,1.871-0.613c0.549,0,1.033,0.115,1.452,0.344
			c0.419,0.22,0.763,0.539,1.033,0.958c0.269,0.409,0.479,0.918,0.628,1.526c0.16,0.599,0.239,1.407,0.239,2.424
			c0,1.207-0.125,2.185-0.374,2.933c-0.25,0.738-0.624,1.312-1.123,1.721c-0.489,0.399-1.107,0.599-1.855,0.599
			c-0.988,0-1.766-0.359-2.334-1.077C167.221,229.366,166.881,227.974,166.881,226.039z M168.183,226.039
			c0,1.686,0.195,2.809,0.584,3.367c0.399,0.559,0.888,0.838,1.466,0.838s1.062-0.279,1.452-0.838
			c0.399-0.559,0.599-1.681,0.599-3.367c0-1.696-0.2-2.818-0.599-3.367c-0.389-0.559-0.878-0.838-1.466-0.838
			c-0.579,0-1.043,0.245-1.392,0.733C168.398,223.195,168.183,224.353,168.183,226.039z M179.447,231.112h-1.272v-8.051
			c-0.299,0.29-0.698,0.583-1.197,0.883c-0.489,0.29-0.928,0.504-1.317,0.644v-1.227c0.698-0.329,1.312-0.728,1.841-1.197
			c0.529-0.469,0.903-0.928,1.123-1.376h0.823V231.112z"/>
		<path fill="#CFE2F3" d="M38.948,284.881L38.948,284.881c0-6.782,37.23-12.281,83.157-12.281s83.157,5.499,83.157,12.281v49.123
			c0,6.782-37.23,12.281-83.157,12.281s-83.157-5.499-83.157-12.281V284.881z"/>
		<path fill-opacity="0" d="M205.262,284.881L205.262,284.881c0,6.782-37.23,12.281-83.157,12.281s-83.157-5.499-83.157-12.281"/>
		<path fill-opacity="0" d="M38.948,284.881L38.948,284.881c0-6.782,37.23-12.281,83.157-12.281s83.157,5.499,83.157,12.281v49.123
			c0,6.782-37.23,12.281-83.157,12.281s-83.157-5.499-83.157-12.281V284.881z"/>
		<path fill="none" stroke="#000000" stroke-width="2" stroke-linejoin="round" stroke-miterlimit="10" d="M205.262,284.881
			L205.262,284.881c0,6.782-37.23,12.281-83.157,12.281s-83.157-5.499-83.157-12.281"/>
		<path fill="none" stroke="#000000" stroke-width="2" stroke-linejoin="round" stroke-miterlimit="10" d="M38.948,284.881
			L38.948,284.881c0-6.782,37.23-12.281,83.157-12.281s83.157,5.499,83.157,12.281v49.123c0,6.782-37.23,12.281-83.157,12.281
			s-83.157-5.499-83.157-12.281V284.881z"/>
		<path fill-opacity="0" d="M10.87,300.951h224.218v55.775H10.87V300.951z"/>
		<path d="M70.108,320.661l1.302,0.149c-0.2,0.768-0.579,1.362-1.137,1.781c-0.559,0.419-1.272,0.628-2.14,0.628
			c-1.087,0-1.95-0.334-2.589-1.002s-0.958-1.611-0.958-2.828c0-1.247,0.324-2.215,0.973-2.903c0.648-0.698,1.486-1.047,2.514-1.047
			c0.998,0,1.811,0.339,2.439,1.018c0.628,0.678,0.943,1.631,0.943,2.858c0,0.08,0,0.195,0,0.344h-5.567
			c0.05,0.818,0.279,1.447,0.688,1.886c0.419,0.429,0.942,0.644,1.571,0.644c0.458,0,0.853-0.12,1.182-0.359
			C69.659,321.579,69.918,321.19,70.108,320.661z M65.963,318.611h4.16c-0.06-0.628-0.219-1.098-0.479-1.407
			c-0.399-0.489-0.917-0.733-1.556-0.733c-0.588,0-1.083,0.195-1.481,0.584C66.217,317.443,66.003,317.962,65.963,318.611z
			 M74.892,323.055l-2.843-7.452h1.332l1.602,4.459c0.169,0.489,0.329,0.993,0.479,1.511c0.11-0.399,0.265-0.873,0.464-1.421
			l1.661-4.549h1.302l-2.829,7.452H74.892z M84.933,320.661l1.302,0.149c-0.2,0.768-0.579,1.362-1.137,1.781
			c-0.559,0.419-1.272,0.628-2.14,0.628c-1.087,0-1.951-0.334-2.589-1.002c-0.639-0.668-0.958-1.611-0.958-2.828
			c0-1.247,0.324-2.215,0.973-2.903c0.649-0.698,1.487-1.047,2.514-1.047c0.998,0,1.811,0.339,2.439,1.018
			c0.628,0.678,0.943,1.631,0.943,2.858c0,0.08,0,0.195,0,0.344h-5.567c0.05,0.818,0.279,1.447,0.688,1.886
			c0.419,0.429,0.942,0.644,1.571,0.644c0.458,0,0.853-0.12,1.182-0.359C84.484,321.579,84.744,321.19,84.933,320.661z
			 M80.788,318.611h4.16c-0.06-0.628-0.219-1.098-0.479-1.407c-0.399-0.489-0.917-0.733-1.556-0.733
			c-0.589,0-1.083,0.195-1.481,0.584C81.042,317.443,80.828,317.962,80.788,318.611z M87.637,323.055v-7.452h1.137v1.062
			c0.549-0.818,1.342-1.227,2.379-1.227c0.449,0,0.858,0.08,1.227,0.239c0.379,0.16,0.664,0.374,0.853,0.644
			c0.189,0.259,0.319,0.568,0.389,0.928c0.05,0.229,0.075,0.639,0.075,1.227v4.579h-1.272v-4.534c0-0.509-0.05-0.888-0.15-1.137
			c-0.089-0.259-0.259-0.464-0.509-0.614c-0.249-0.16-0.543-0.239-0.883-0.239c-0.539,0-1.002,0.169-1.392,0.509
			s-0.583,0.988-0.583,1.945v4.07H87.637z M98.212,321.933l0.179,1.107c-0.359,0.08-0.678,0.12-0.958,0.12
			c-0.459,0-0.818-0.075-1.078-0.225c-0.25-0.149-0.424-0.339-0.523-0.568c-0.1-0.24-0.15-0.738-0.15-1.497v-4.28h-0.928v-0.987
			h0.928v-1.841l1.257-0.763v2.604h1.272v0.987H96.94v4.355c0,0.359,0.02,0.594,0.06,0.703c0.05,0.1,0.125,0.18,0.225,0.24
			c0.1,0.06,0.239,0.09,0.419,0.09C97.793,321.978,97.983,321.963,98.212,321.933z M98.85,320.826l1.242-0.195
			c0.07,0.499,0.265,0.883,0.583,1.152c0.319,0.27,0.769,0.404,1.347,0.404s1.007-0.115,1.287-0.344
			c0.28-0.24,0.419-0.519,0.419-0.838c0-0.29-0.125-0.514-0.375-0.674c-0.169-0.12-0.598-0.264-1.287-0.434
			c-0.928-0.229-1.571-0.429-1.931-0.599c-0.349-0.18-0.619-0.419-0.808-0.718c-0.18-0.299-0.27-0.634-0.27-1.003
			c0-0.329,0.075-0.633,0.225-0.913c0.15-0.29,0.354-0.524,0.614-0.704c0.199-0.149,0.469-0.274,0.808-0.374
			c0.339-0.1,0.703-0.149,1.092-0.149c0.579,0,1.087,0.084,1.526,0.254c0.449,0.169,0.778,0.399,0.988,0.688
			c0.209,0.279,0.354,0.664,0.434,1.152l-1.227,0.165c-0.06-0.389-0.225-0.688-0.494-0.898c-0.269-0.219-0.648-0.329-1.137-0.329
			c-0.579,0-0.993,0.1-1.242,0.299c-0.25,0.189-0.374,0.414-0.374,0.673c0,0.16,0.05,0.305,0.149,0.434
			c0.11,0.14,0.274,0.254,0.494,0.344c0.12,0.04,0.489,0.145,1.107,0.314c0.898,0.239,1.521,0.434,1.871,0.583
			c0.359,0.149,0.638,0.374,0.838,0.673c0.2,0.29,0.299,0.648,0.299,1.078c0,0.419-0.125,0.813-0.374,1.182
			c-0.24,0.369-0.594,0.658-1.062,0.868c-0.459,0.199-0.983,0.299-1.571,0.299c-0.968,0-1.706-0.199-2.215-0.599
			C99.309,322.222,98.989,321.624,98.85,320.826z M105.868,319.973v-1.272h3.891v1.272H105.868z M117.322,321.843v1.212h-6.794
			c-0.01-0.299,0.04-0.593,0.149-0.883c0.17-0.459,0.444-0.913,0.823-1.362c0.389-0.449,0.943-0.968,1.661-1.556
			c1.117-0.918,1.871-1.641,2.26-2.17c0.399-0.539,0.599-1.047,0.599-1.526c0-0.499-0.18-0.918-0.539-1.257
			c-0.359-0.349-0.828-0.523-1.407-0.523c-0.608,0-1.097,0.185-1.466,0.554c-0.359,0.359-0.539,0.863-0.539,1.511l-1.302-0.135
			c0.09-0.968,0.424-1.706,1.003-2.215s1.356-0.763,2.334-0.763c0.987,0,1.766,0.274,2.334,0.823
			c0.579,0.549,0.868,1.227,0.868,2.035c0,0.409-0.084,0.813-0.254,1.212c-0.16,0.399-0.439,0.818-0.838,1.257
			c-0.389,0.439-1.038,1.042-1.945,1.811c-0.758,0.628-1.247,1.058-1.467,1.287c-0.209,0.229-0.384,0.459-0.523,0.688H117.322z
			 M118.499,317.982c0-1.217,0.125-2.195,0.374-2.933s0.619-1.307,1.107-1.706c0.499-0.409,1.123-0.614,1.871-0.614
			c0.549,0,1.033,0.115,1.452,0.344c0.419,0.22,0.763,0.539,1.033,0.958c0.269,0.409,0.479,0.917,0.628,1.526
			c0.16,0.599,0.239,1.407,0.239,2.424c0,1.207-0.125,2.185-0.374,2.933c-0.25,0.738-0.624,1.312-1.122,1.721
			c-0.489,0.399-1.107,0.599-1.856,0.599c-0.988,0-1.766-0.359-2.334-1.078C118.838,321.31,118.499,319.918,118.499,317.982z
			 M119.801,317.982c0,1.686,0.195,2.808,0.584,3.367c0.399,0.559,0.888,0.838,1.466,0.838s1.062-0.279,1.452-0.838
			c0.399-0.559,0.599-1.681,0.599-3.367c0-1.696-0.2-2.818-0.599-3.367c-0.389-0.559-0.878-0.838-1.466-0.838
			c-0.579,0-1.043,0.244-1.392,0.733C120.016,315.139,119.801,316.296,119.801,317.982z M131.064,323.055h-1.272v-8.051
			c-0.299,0.289-0.698,0.583-1.197,0.883c-0.489,0.29-0.928,0.504-1.317,0.644v-1.227c0.699-0.329,1.312-0.729,1.841-1.197
			s0.903-0.928,1.123-1.377h0.823V323.055z M134.112,320.362l1.317-0.12c0.1,0.648,0.33,1.137,0.688,1.466
			c0.359,0.319,0.793,0.479,1.302,0.479c0.609,0,1.123-0.229,1.542-0.688s0.628-1.062,0.628-1.811c0-0.729-0.204-1.297-0.613-1.706
			c-0.399-0.419-0.928-0.629-1.586-0.629c-0.409,0-0.778,0.095-1.107,0.285c-0.319,0.18-0.574,0.414-0.763,0.703l-1.182-0.149
			l0.988-5.283h5.118v1.212h-4.1l-0.554,2.754c0.619-0.429,1.267-0.644,1.945-0.644c0.898,0,1.651,0.314,2.26,0.943
			c0.619,0.619,0.928,1.417,0.928,2.394c0,0.928-0.27,1.731-0.808,2.41c-0.658,0.838-1.556,1.257-2.694,1.257
			c-0.938,0-1.706-0.259-2.304-0.778C134.526,321.928,134.192,321.229,134.112,320.362z M141.77,319.973v-1.272h3.891v1.272H141.77z
			 M146.594,317.982c0-1.217,0.125-2.195,0.374-2.933s0.619-1.307,1.107-1.706c0.499-0.409,1.122-0.614,1.871-0.614
			c0.548,0,1.032,0.115,1.452,0.344c0.419,0.22,0.763,0.539,1.032,0.958c0.27,0.409,0.479,0.917,0.629,1.526
			c0.159,0.599,0.239,1.407,0.239,2.424c0,1.207-0.125,2.185-0.374,2.933c-0.25,0.738-0.624,1.312-1.123,1.721
			c-0.489,0.399-1.107,0.599-1.855,0.599c-0.988,0-1.766-0.359-2.334-1.078C146.933,321.31,146.594,319.918,146.594,317.982z
			 M147.896,317.982c0,1.686,0.194,2.808,0.583,3.367c0.399,0.559,0.888,0.838,1.467,0.838s1.062-0.279,1.452-0.838
			c0.399-0.559,0.599-1.681,0.599-3.367c0-1.696-0.2-2.818-0.599-3.367c-0.389-0.559-0.878-0.838-1.467-0.838
			c-0.579,0-1.042,0.244-1.392,0.733C148.11,315.139,147.896,316.296,147.896,317.982z M159.159,323.055h-1.272v-8.051
			c-0.299,0.289-0.699,0.583-1.197,0.883c-0.489,0.29-0.928,0.504-1.317,0.644v-1.227c0.698-0.329,1.312-0.729,1.841-1.197
			c0.528-0.469,0.903-0.928,1.122-1.377h0.823V323.055z M162.057,319.973v-1.272h3.891v1.272H162.057z M166.881,317.982
			c0-1.217,0.125-2.195,0.374-2.933s0.619-1.307,1.107-1.706c0.499-0.409,1.123-0.614,1.871-0.614c0.549,0,1.033,0.115,1.452,0.344
			c0.419,0.22,0.763,0.539,1.033,0.958c0.269,0.409,0.479,0.917,0.628,1.526c0.16,0.599,0.239,1.407,0.239,2.424
			c0,1.207-0.125,2.185-0.374,2.933c-0.25,0.738-0.624,1.312-1.123,1.721c-0.489,0.399-1.107,0.599-1.855,0.599
			c-0.988,0-1.766-0.359-2.334-1.078C167.221,321.31,166.881,319.918,166.881,317.982z M168.183,317.982
			c0,1.686,0.195,2.808,0.584,3.367c0.399,0.559,0.888,0.838,1.466,0.838s1.062-0.279,1.452-0.838
			c0.399-0.559,0.599-1.681,0.599-3.367c0-1.696-0.2-2.818-0.599-3.367c-0.389-0.559-0.878-0.838-1.466-0.838
			c-0.579,0-1.043,0.244-1.392,0.733C168.398,315.139,168.183,316.296,168.183,317.982z M181.317,321.843v1.212h-6.794
			c-0.01-0.299,0.04-0.593,0.149-0.883c0.17-0.459,0.444-0.913,0.823-1.362c0.389-0.449,0.943-0.968,1.661-1.556
			c1.117-0.918,1.871-1.641,2.26-2.17c0.399-0.539,0.599-1.047,0.599-1.526c0-0.499-0.18-0.918-0.539-1.257
			c-0.359-0.349-0.828-0.523-1.406-0.523c-0.609,0-1.098,0.185-1.467,0.554c-0.359,0.359-0.539,0.863-0.539,1.511l-1.302-0.135
			c0.09-0.968,0.424-1.706,1.003-2.215s1.357-0.763,2.334-0.763c0.988,0,1.766,0.274,2.334,0.823
			c0.579,0.549,0.868,1.227,0.868,2.035c0,0.409-0.085,0.813-0.255,1.212c-0.159,0.399-0.439,0.818-0.838,1.257
			c-0.389,0.439-1.038,1.042-1.945,1.811c-0.758,0.628-1.247,1.058-1.467,1.287c-0.209,0.229-0.384,0.459-0.523,0.688H181.317z"/>
		<path fill="#CFE2F3" d="M38.948,376.825L38.948,376.825c0-6.783,37.23-12.281,83.157-12.281s83.157,5.498,83.157,12.281v49.123
			c0,6.782-37.23,12.28-83.157,12.28s-83.157-5.498-83.157-12.28V376.825z"/>
		<path fill-opacity="0" d="M205.262,376.825L205.262,376.825c0,6.782-37.23,12.28-83.157,12.28s-83.157-5.498-83.157-12.28"/>
		<path fill-opacity="0" d="M38.948,376.825L38.948,376.825c0-6.783,37.23-12.281,83.157-12.281s83.157,5.498,83.157,12.281v49.123
			c0,6.782-37.23,12.28-83.157,12.28s-83.157-5.498-83.157-12.28V376.825z"/>
		<path fill="none" stroke="#000000" stroke-width="2" stroke-linejoin="round" stroke-miterlimit="10" d="M205.262,376.825
			L205.262,376.825c0,6.782-37.23,12.28-83.157,12.28s-83.157-5.498-83.157-12.28"/>
		<path fill="none" stroke="#000000" stroke-width="2" stroke-linejoin="round" stroke-miterlimit="10" d="M38.948,376.825
			L38.948,376.825c0-6.783,37.23-12.281,83.157-12.281s83.157,5.498,83.157,12.281v49.123c0,6.782-37.23,12.28-83.157,12.28
			s-83.157-5.498-83.157-12.28V376.825z"/>
		<path fill-opacity="0" d="M10.87,392.894h224.218v55.776H10.87V392.894z"/>
		<path d="M70.108,412.604l1.302,0.149c-0.2,0.769-0.579,1.362-1.137,1.781c-0.559,0.419-1.272,0.629-2.14,0.629
			c-1.087,0-1.95-0.335-2.589-1.003c-0.639-0.669-0.958-1.611-0.958-2.828c0-1.247,0.324-2.215,0.973-2.903
			c0.648-0.698,1.486-1.048,2.514-1.048c0.998,0,1.811,0.339,2.439,1.018s0.943,1.631,0.943,2.858c0,0.08,0,0.194,0,0.344h-5.567
			c0.05,0.818,0.279,1.447,0.688,1.886c0.419,0.43,0.942,0.644,1.571,0.644c0.458,0,0.853-0.119,1.182-0.359
			C69.659,413.522,69.918,413.134,70.108,412.604z M65.963,410.555h4.16c-0.06-0.629-0.219-1.098-0.479-1.407
			c-0.399-0.488-0.917-0.733-1.556-0.733c-0.588,0-1.083,0.195-1.481,0.584C66.217,409.387,66.003,409.906,65.963,410.555z
			 M74.892,414.999l-2.843-7.452h1.332l1.602,4.459c0.169,0.489,0.329,0.993,0.479,1.512c0.11-0.399,0.265-0.873,0.464-1.422
			l1.661-4.549h1.302l-2.829,7.452H74.892z M84.933,412.604l1.302,0.149c-0.2,0.769-0.579,1.362-1.137,1.781
			c-0.559,0.419-1.272,0.629-2.14,0.629c-1.087,0-1.951-0.335-2.589-1.003c-0.639-0.669-0.958-1.611-0.958-2.828
			c0-1.247,0.324-2.215,0.973-2.903c0.649-0.698,1.487-1.048,2.514-1.048c0.998,0,1.811,0.339,2.439,1.018s0.943,1.631,0.943,2.858
			c0,0.08,0,0.194,0,0.344h-5.567c0.05,0.818,0.279,1.447,0.688,1.886c0.419,0.43,0.942,0.644,1.571,0.644
			c0.458,0,0.853-0.119,1.182-0.359C84.484,413.522,84.744,413.134,84.933,412.604z M80.788,410.555h4.16
			c-0.06-0.629-0.219-1.098-0.479-1.407c-0.399-0.488-0.917-0.733-1.556-0.733c-0.589,0-1.083,0.195-1.481,0.584
			C81.042,409.387,80.828,409.906,80.788,410.555z M87.637,414.999v-7.452h1.137v1.062c0.549-0.818,1.342-1.228,2.379-1.228
			c0.449,0,0.858,0.08,1.227,0.239c0.379,0.16,0.664,0.374,0.853,0.644c0.189,0.26,0.319,0.569,0.389,0.928
			c0.05,0.229,0.075,0.639,0.075,1.228v4.579h-1.272v-4.534c0-0.509-0.05-0.888-0.15-1.138c-0.089-0.259-0.259-0.464-0.509-0.613
			c-0.249-0.159-0.543-0.239-0.883-0.239c-0.539,0-1.002,0.169-1.392,0.509c-0.389,0.339-0.583,0.987-0.583,1.945v4.07H87.637z
			 M98.212,413.877l0.179,1.107c-0.359,0.079-0.678,0.119-0.958,0.119c-0.459,0-0.818-0.074-1.078-0.225
			c-0.25-0.149-0.424-0.339-0.523-0.568c-0.1-0.239-0.15-0.738-0.15-1.496v-4.28h-0.928v-0.987h0.928v-1.841l1.257-0.764v2.604
			h1.272v0.987H96.94v4.354c0,0.359,0.02,0.594,0.06,0.704c0.05,0.1,0.125,0.179,0.225,0.239c0.1,0.06,0.239,0.09,0.419,0.09
			C97.793,413.922,97.983,413.906,98.212,413.877z M98.85,412.77l1.242-0.195c0.07,0.499,0.265,0.884,0.583,1.152
			c0.319,0.27,0.769,0.404,1.347,0.404s1.007-0.114,1.287-0.344c0.28-0.239,0.419-0.519,0.419-0.838c0-0.29-0.125-0.514-0.375-0.674
			c-0.169-0.12-0.598-0.265-1.287-0.434c-0.928-0.229-1.571-0.43-1.931-0.599c-0.349-0.18-0.619-0.419-0.808-0.719
			c-0.18-0.299-0.27-0.634-0.27-1.003c0-0.329,0.075-0.633,0.225-0.912c0.15-0.29,0.354-0.524,0.614-0.704
			c0.199-0.149,0.469-0.273,0.808-0.374c0.339-0.1,0.703-0.149,1.092-0.149c0.579,0,1.087,0.085,1.526,0.255
			c0.449,0.169,0.778,0.398,0.988,0.688c0.209,0.28,0.354,0.664,0.434,1.152l-1.227,0.165c-0.06-0.389-0.225-0.688-0.494-0.897
			c-0.269-0.22-0.648-0.33-1.137-0.33c-0.579,0-0.993,0.101-1.242,0.3c-0.25,0.189-0.374,0.414-0.374,0.673
			c0,0.16,0.05,0.305,0.149,0.435c0.11,0.14,0.274,0.254,0.494,0.344c0.12,0.04,0.489,0.146,1.107,0.314
			c0.898,0.239,1.521,0.435,1.871,0.584c0.359,0.149,0.638,0.374,0.838,0.673c0.2,0.29,0.299,0.648,0.299,1.078
			c0,0.419-0.125,0.812-0.374,1.182c-0.24,0.369-0.594,0.659-1.062,0.868c-0.459,0.199-0.983,0.3-1.571,0.3
			c-0.968,0-1.706-0.2-2.215-0.599C99.309,414.166,98.989,413.567,98.85,412.77z M105.868,411.916v-1.271h3.891v1.271H105.868z
			 M117.322,413.787v1.212h-6.794c-0.01-0.3,0.04-0.594,0.149-0.883c0.17-0.459,0.444-0.913,0.823-1.362
			c0.389-0.448,0.943-0.968,1.661-1.556c1.117-0.918,1.871-1.642,2.26-2.17c0.399-0.539,0.599-1.048,0.599-1.526
			c0-0.499-0.18-0.918-0.539-1.258c-0.359-0.349-0.828-0.523-1.407-0.523c-0.608,0-1.097,0.185-1.466,0.554
			c-0.359,0.359-0.539,0.863-0.539,1.512l-1.302-0.135c0.09-0.968,0.424-1.706,1.003-2.215s1.356-0.764,2.334-0.764
			c0.987,0,1.766,0.274,2.334,0.823c0.579,0.549,0.868,1.228,0.868,2.035c0,0.409-0.084,0.813-0.254,1.213
			c-0.16,0.398-0.439,0.817-0.838,1.257c-0.389,0.438-1.038,1.042-1.945,1.811c-0.758,0.629-1.247,1.058-1.467,1.287
			c-0.209,0.229-0.384,0.459-0.523,0.688H117.322z M118.499,409.926c0-1.217,0.125-2.194,0.374-2.933s0.619-1.308,1.107-1.706
			c0.499-0.409,1.123-0.614,1.871-0.614c0.549,0,1.033,0.115,1.452,0.345c0.419,0.22,0.763,0.539,1.033,0.958
			c0.269,0.409,0.479,0.918,0.628,1.526c0.16,0.599,0.239,1.406,0.239,2.424c0,1.207-0.125,2.185-0.374,2.934
			c-0.25,0.738-0.624,1.312-1.122,1.721c-0.489,0.399-1.107,0.599-1.856,0.599c-0.988,0-1.766-0.359-2.334-1.077
			C118.838,413.253,118.499,411.861,118.499,409.926z M119.801,409.926c0,1.687,0.195,2.809,0.584,3.367
			c0.399,0.559,0.888,0.838,1.466,0.838s1.062-0.279,1.452-0.838c0.399-0.559,0.599-1.681,0.599-3.367
			c0-1.696-0.2-2.818-0.599-3.367c-0.389-0.559-0.878-0.838-1.466-0.838c-0.579,0-1.043,0.244-1.392,0.733
			C120.016,407.083,119.801,408.24,119.801,409.926z M131.064,414.999h-1.272v-8.051c-0.299,0.289-0.698,0.583-1.197,0.883
			c-0.489,0.289-0.928,0.504-1.317,0.644v-1.228c0.699-0.329,1.312-0.729,1.841-1.197s0.903-0.928,1.123-1.377h0.823V414.999z
			 M134.112,412.306l1.317-0.12c0.1,0.648,0.33,1.138,0.688,1.467c0.359,0.319,0.793,0.479,1.302,0.479
			c0.609,0,1.123-0.229,1.542-0.688s0.628-1.062,0.628-1.811c0-0.729-0.204-1.297-0.613-1.706c-0.399-0.419-0.928-0.628-1.586-0.628
			c-0.409,0-0.778,0.095-1.107,0.284c-0.319,0.18-0.574,0.414-0.763,0.703l-1.182-0.149l0.988-5.283h5.118v1.213h-4.1l-0.554,2.753
			c0.619-0.429,1.267-0.644,1.945-0.644c0.898,0,1.651,0.314,2.26,0.943c0.619,0.618,0.928,1.416,0.928,2.394
			c0,0.929-0.27,1.731-0.808,2.41c-0.658,0.838-1.556,1.257-2.694,1.257c-0.938,0-1.706-0.26-2.304-0.778
			C134.526,413.872,134.192,413.173,134.112,412.306z M141.77,411.916v-1.271h3.891v1.271H141.77z M146.594,409.926
			c0-1.217,0.125-2.194,0.374-2.933s0.619-1.308,1.107-1.706c0.499-0.409,1.122-0.614,1.871-0.614c0.548,0,1.032,0.115,1.452,0.345
			c0.419,0.22,0.763,0.539,1.032,0.958c0.27,0.409,0.479,0.918,0.629,1.526c0.159,0.599,0.239,1.406,0.239,2.424
			c0,1.207-0.125,2.185-0.374,2.934c-0.25,0.738-0.624,1.312-1.123,1.721c-0.489,0.399-1.107,0.599-1.855,0.599
			c-0.988,0-1.766-0.359-2.334-1.077C146.933,413.253,146.594,411.861,146.594,409.926z M147.896,409.926
			c0,1.687,0.194,2.809,0.583,3.367c0.399,0.559,0.888,0.838,1.467,0.838s1.062-0.279,1.452-0.838
			c0.399-0.559,0.599-1.681,0.599-3.367c0-1.696-0.2-2.818-0.599-3.367c-0.389-0.559-0.878-0.838-1.467-0.838
			c-0.579,0-1.042,0.244-1.392,0.733C148.11,407.083,147.896,408.24,147.896,409.926z M159.159,414.999h-1.272v-8.051
			c-0.299,0.289-0.699,0.583-1.197,0.883c-0.489,0.289-0.928,0.504-1.317,0.644v-1.228c0.698-0.329,1.312-0.729,1.841-1.197
			c0.528-0.469,0.903-0.928,1.122-1.377h0.823V414.999z M162.057,411.916v-1.271h3.891v1.271H162.057z M166.881,409.926
			c0-1.217,0.125-2.194,0.374-2.933s0.619-1.308,1.107-1.706c0.499-0.409,1.123-0.614,1.871-0.614c0.549,0,1.033,0.115,1.452,0.345
			c0.419,0.22,0.763,0.539,1.033,0.958c0.269,0.409,0.479,0.918,0.628,1.526c0.16,0.599,0.239,1.406,0.239,2.424
			c0,1.207-0.125,2.185-0.374,2.934c-0.25,0.738-0.624,1.312-1.123,1.721c-0.489,0.399-1.107,0.599-1.855,0.599
			c-0.988,0-1.766-0.359-2.334-1.077C167.221,413.253,166.881,411.861,166.881,409.926z M168.183,409.926
			c0,1.687,0.195,2.809,0.584,3.367c0.399,0.559,0.888,0.838,1.466,0.838s1.062-0.279,1.452-0.838
			c0.399-0.559,0.599-1.681,0.599-3.367c0-1.696-0.2-2.818-0.599-3.367c-0.389-0.559-0.878-0.838-1.466-0.838
			c-0.579,0-1.043,0.244-1.392,0.733C168.398,407.083,168.183,408.24,168.183,409.926z M174.688,412.29l1.272-0.18
			c0.14,0.719,0.384,1.237,0.733,1.557c0.349,0.31,0.773,0.464,1.272,0.464c0.599,0,1.103-0.204,1.511-0.613
			c0.409-0.409,0.614-0.918,0.614-1.526c0-0.579-0.189-1.058-0.569-1.437c-0.379-0.379-0.863-0.569-1.451-0.569
			c-0.24,0-0.534,0.051-0.883,0.15l0.135-1.107c0.09,0.01,0.16,0.015,0.209,0.015c0.539,0,1.022-0.14,1.452-0.419
			c0.429-0.289,0.644-0.724,0.644-1.302c0-0.469-0.16-0.854-0.479-1.152c-0.309-0.31-0.713-0.464-1.212-0.464
			c-0.489,0-0.898,0.154-1.227,0.464c-0.319,0.31-0.529,0.773-0.629,1.392l-1.257-0.225c0.149-0.848,0.499-1.501,1.047-1.96
			c0.549-0.469,1.227-0.704,2.035-0.704c0.569,0,1.088,0.12,1.557,0.359s0.828,0.569,1.077,0.988
			c0.26,0.419,0.389,0.862,0.389,1.331c0,0.439-0.12,0.844-0.359,1.213c-0.24,0.358-0.594,0.648-1.062,0.867
			c0.608,0.141,1.077,0.43,1.407,0.868c0.339,0.439,0.509,0.993,0.509,1.661c0,0.898-0.33,1.661-0.988,2.29
			c-0.648,0.618-1.472,0.928-2.469,0.928c-0.908,0-1.661-0.27-2.26-0.809C175.117,413.832,174.778,413.139,174.688,412.29z"/>
		<path fill="#CFE2F3" d="M38.948,468.769L38.948,468.769c0-6.783,37.23-12.281,83.157-12.281s83.157,5.498,83.157,12.281v49.122
			c0,6.782-37.23,12.28-83.157,12.28s-83.157-5.498-83.157-12.28V468.769z"/>
		<path fill-opacity="0" d="M205.262,468.769L205.262,468.769c0,6.782-37.23,12.28-83.157,12.28s-83.157-5.498-83.157-12.28"/>
		<path fill-opacity="0" d="M38.948,468.769L38.948,468.769c0-6.783,37.23-12.281,83.157-12.281s83.157,5.498,83.157,12.281v49.122
			c0,6.782-37.23,12.28-83.157,12.28s-83.157-5.498-83.157-12.28V468.769z"/>
		<path fill="none" stroke="#000000" stroke-width="2" stroke-linejoin="round" stroke-miterlimit="10" d="M205.262,468.769
			L205.262,468.769c0,6.782-37.23,12.28-83.157,12.28s-83.157-5.498-83.157-12.28"/>
		<path fill="none" stroke="#000000" stroke-width="2" stroke-linejoin="round" stroke-miterlimit="10" d="M38.948,468.769
			L38.948,468.769c0-6.783,37.23-12.281,83.157-12.281s83.157,5.498,83.157,12.281v49.122c0,6.782-37.23,12.28-83.157,12.28
			s-83.157-5.498-83.157-12.28V468.769z"/>
		<path fill-opacity="0" d="M10.87,484.838h224.218v55.775H10.87V484.838z"/>
		<path d="M70.108,504.548l1.302,0.15c-0.2,0.768-0.579,1.361-1.137,1.78c-0.559,0.419-1.272,0.629-2.14,0.629
			c-1.087,0-1.95-0.334-2.589-1.003c-0.639-0.668-0.958-1.611-0.958-2.828c0-1.247,0.324-2.215,0.973-2.903
			c0.648-0.698,1.486-1.048,2.514-1.048c0.998,0,1.811,0.34,2.439,1.018c0.628,0.679,0.943,1.632,0.943,2.858
			c0,0.08,0,0.195,0,0.345h-5.567c0.05,0.817,0.279,1.446,0.688,1.886c0.419,0.429,0.942,0.643,1.571,0.643
			c0.458,0,0.853-0.119,1.182-0.358C69.659,505.466,69.918,505.077,70.108,504.548z M65.963,502.498h4.16
			c-0.06-0.629-0.219-1.098-0.479-1.406c-0.399-0.489-0.917-0.733-1.556-0.733c-0.588,0-1.083,0.194-1.481,0.583
			C66.217,501.331,66.003,501.85,65.963,502.498z M74.892,506.942l-2.843-7.452h1.332l1.602,4.459
			c0.169,0.489,0.329,0.993,0.479,1.512c0.11-0.398,0.265-0.873,0.464-1.422l1.661-4.549h1.302l-2.829,7.452H74.892z
			 M84.933,504.548l1.302,0.15c-0.2,0.768-0.579,1.361-1.137,1.78c-0.559,0.419-1.272,0.629-2.14,0.629
			c-1.087,0-1.951-0.334-2.589-1.003c-0.639-0.668-0.958-1.611-0.958-2.828c0-1.247,0.324-2.215,0.973-2.903
			c0.649-0.698,1.487-1.048,2.514-1.048c0.998,0,1.811,0.34,2.439,1.018c0.628,0.679,0.943,1.632,0.943,2.858
			c0,0.08,0,0.195,0,0.345h-5.567c0.05,0.817,0.279,1.446,0.688,1.886c0.419,0.429,0.942,0.643,1.571,0.643
			c0.458,0,0.853-0.119,1.182-0.358C84.484,505.466,84.744,505.077,84.933,504.548z M80.788,502.498h4.16
			c-0.06-0.629-0.219-1.098-0.479-1.406c-0.399-0.489-0.917-0.733-1.556-0.733c-0.589,0-1.083,0.194-1.481,0.583
			C81.042,501.331,80.828,501.85,80.788,502.498z M87.637,506.942v-7.452h1.137v1.062c0.549-0.818,1.342-1.228,2.379-1.228
			c0.449,0,0.858,0.08,1.227,0.24c0.379,0.159,0.664,0.374,0.853,0.644c0.189,0.259,0.319,0.568,0.389,0.928
			c0.05,0.229,0.075,0.638,0.075,1.227v4.579h-1.272v-4.534c0-0.509-0.05-0.888-0.15-1.137c-0.089-0.26-0.259-0.465-0.509-0.614
			c-0.249-0.159-0.543-0.239-0.883-0.239c-0.539,0-1.002,0.17-1.392,0.509s-0.583,0.987-0.583,1.945v4.07H87.637z M98.212,505.82
			l0.179,1.107c-0.359,0.08-0.678,0.12-0.958,0.12c-0.459,0-0.818-0.075-1.078-0.225c-0.25-0.15-0.424-0.34-0.523-0.569
			c-0.1-0.239-0.15-0.738-0.15-1.496v-4.28h-0.928v-0.987h0.928v-1.841l1.257-0.763v2.604h1.272v0.987H96.94v4.355
			c0,0.358,0.02,0.593,0.06,0.703c0.05,0.1,0.125,0.18,0.225,0.239s0.239,0.09,0.419,0.09
			C97.793,505.865,97.983,505.851,98.212,505.82z M98.85,504.713l1.242-0.194c0.07,0.499,0.265,0.883,0.583,1.152
			c0.319,0.27,0.769,0.403,1.347,0.403s1.007-0.114,1.287-0.344c0.28-0.239,0.419-0.519,0.419-0.838
			c0-0.289-0.125-0.514-0.375-0.674c-0.169-0.119-0.598-0.264-1.287-0.434c-0.928-0.229-1.571-0.429-1.931-0.599
			c-0.349-0.18-0.619-0.419-0.808-0.719c-0.18-0.299-0.27-0.633-0.27-1.002c0-0.329,0.075-0.634,0.225-0.913
			c0.15-0.289,0.354-0.523,0.614-0.703c0.199-0.15,0.469-0.274,0.808-0.374c0.339-0.101,0.703-0.15,1.092-0.15
			c0.579,0,1.087,0.085,1.526,0.255c0.449,0.17,0.778,0.399,0.988,0.688c0.209,0.279,0.354,0.663,0.434,1.152l-1.227,0.164
			c-0.06-0.389-0.225-0.688-0.494-0.897c-0.269-0.22-0.648-0.329-1.137-0.329c-0.579,0-0.993,0.1-1.242,0.299
			c-0.25,0.189-0.374,0.414-0.374,0.674c0,0.159,0.05,0.304,0.149,0.434c0.11,0.14,0.274,0.255,0.494,0.345
			c0.12,0.04,0.489,0.145,1.107,0.313c0.898,0.24,1.521,0.435,1.871,0.584c0.359,0.149,0.638,0.374,0.838,0.674
			c0.2,0.289,0.299,0.648,0.299,1.077c0,0.419-0.125,0.813-0.374,1.183c-0.24,0.369-0.594,0.658-1.062,0.867
			c-0.459,0.2-0.983,0.3-1.571,0.3c-0.968,0-1.706-0.199-2.215-0.599C99.309,506.109,98.989,505.511,98.85,504.713z M105.868,503.86
			v-1.272h3.891v1.272H105.868z M117.322,505.73v1.212h-6.794c-0.01-0.299,0.04-0.594,0.149-0.883
			c0.17-0.459,0.444-0.913,0.823-1.361c0.389-0.449,0.943-0.968,1.661-1.557c1.117-0.918,1.871-1.642,2.26-2.17
			c0.399-0.539,0.599-1.048,0.599-1.526c0-0.499-0.18-0.918-0.539-1.257c-0.359-0.35-0.828-0.524-1.407-0.524
			c-0.608,0-1.097,0.185-1.466,0.554c-0.359,0.359-0.539,0.863-0.539,1.512l-1.302-0.135c0.09-0.968,0.424-1.706,1.003-2.215
			s1.356-0.763,2.334-0.763c0.987,0,1.766,0.274,2.334,0.823c0.579,0.548,0.868,1.227,0.868,2.035c0,0.409-0.084,0.812-0.254,1.212
			c-0.16,0.399-0.439,0.818-0.838,1.257c-0.389,0.439-1.038,1.043-1.945,1.811c-0.758,0.629-1.247,1.058-1.467,1.287
			c-0.209,0.229-0.384,0.459-0.523,0.688H117.322z M118.499,501.869c0-1.217,0.125-2.194,0.374-2.933s0.619-1.307,1.107-1.706
			c0.499-0.409,1.123-0.613,1.871-0.613c0.549,0,1.033,0.114,1.452,0.344c0.419,0.22,0.763,0.539,1.033,0.958
			c0.269,0.409,0.479,0.918,0.628,1.526c0.16,0.599,0.239,1.406,0.239,2.424c0,1.208-0.125,2.186-0.374,2.934
			c-0.25,0.738-0.624,1.312-1.122,1.721c-0.489,0.399-1.107,0.599-1.856,0.599c-0.988,0-1.766-0.359-2.334-1.077
			C118.838,505.197,118.499,503.805,118.499,501.869z M119.801,501.869c0,1.687,0.195,2.809,0.584,3.367
			c0.399,0.559,0.888,0.838,1.466,0.838s1.062-0.279,1.452-0.838c0.399-0.559,0.599-1.681,0.599-3.367
			c0-1.695-0.2-2.818-0.599-3.366c-0.389-0.559-0.878-0.839-1.466-0.839c-0.579,0-1.043,0.245-1.392,0.733
			C120.016,499.026,119.801,500.184,119.801,501.869z M131.064,506.942h-1.272v-8.051c-0.299,0.289-0.698,0.584-1.197,0.883
			c-0.489,0.289-0.928,0.504-1.317,0.644v-1.227c0.699-0.33,1.312-0.729,1.841-1.197c0.529-0.47,0.903-0.928,1.123-1.377h0.823
			V506.942z M134.112,504.249l1.317-0.12c0.1,0.648,0.33,1.138,0.688,1.467c0.359,0.319,0.793,0.479,1.302,0.479
			c0.609,0,1.123-0.229,1.542-0.688s0.628-1.062,0.628-1.812c0-0.728-0.204-1.297-0.613-1.706c-0.399-0.419-0.928-0.628-1.586-0.628
			c-0.409,0-0.778,0.095-1.107,0.284c-0.319,0.18-0.574,0.414-0.763,0.703l-1.182-0.149l0.988-5.282h5.118v1.212h-4.1l-0.554,2.753
			c0.619-0.429,1.267-0.643,1.945-0.643c0.898,0,1.651,0.313,2.26,0.942c0.619,0.618,0.928,1.417,0.928,2.395
			c0,0.928-0.27,1.73-0.808,2.409c-0.658,0.838-1.556,1.257-2.694,1.257c-0.938,0-1.706-0.259-2.304-0.778
			C134.526,505.815,134.192,505.117,134.112,504.249z M141.77,503.86v-1.272h3.891v1.272H141.77z M146.594,501.869
			c0-1.217,0.125-2.194,0.374-2.933s0.619-1.307,1.107-1.706c0.499-0.409,1.122-0.613,1.871-0.613c0.548,0,1.032,0.114,1.452,0.344
			c0.419,0.22,0.763,0.539,1.032,0.958c0.27,0.409,0.479,0.918,0.629,1.526c0.159,0.599,0.239,1.406,0.239,2.424
			c0,1.208-0.125,2.186-0.374,2.934c-0.25,0.738-0.624,1.312-1.123,1.721c-0.489,0.399-1.107,0.599-1.855,0.599
			c-0.988,0-1.766-0.359-2.334-1.077C146.933,505.197,146.594,503.805,146.594,501.869z M147.896,501.869
			c0,1.687,0.194,2.809,0.583,3.367c0.399,0.559,0.888,0.838,1.467,0.838s1.062-0.279,1.452-0.838
			c0.399-0.559,0.599-1.681,0.599-3.367c0-1.695-0.2-2.818-0.599-3.366c-0.389-0.559-0.878-0.839-1.467-0.839
			c-0.579,0-1.042,0.245-1.392,0.733C148.11,499.026,147.896,500.184,147.896,501.869z M159.159,506.942h-1.272v-8.051
			c-0.299,0.289-0.699,0.584-1.197,0.883c-0.489,0.289-0.928,0.504-1.317,0.644v-1.227c0.698-0.33,1.312-0.729,1.841-1.197
			c0.528-0.47,0.903-0.928,1.122-1.377h0.823V506.942z M162.057,503.86v-1.272h3.891v1.272H162.057z M166.881,501.869
			c0-1.217,0.125-2.194,0.374-2.933s0.619-1.307,1.107-1.706c0.499-0.409,1.123-0.613,1.871-0.613c0.549,0,1.033,0.114,1.452,0.344
			c0.419,0.22,0.763,0.539,1.033,0.958c0.269,0.409,0.479,0.918,0.628,1.526c0.16,0.599,0.239,1.406,0.239,2.424
			c0,1.208-0.125,2.186-0.374,2.934c-0.25,0.738-0.624,1.312-1.123,1.721c-0.489,0.399-1.107,0.599-1.855,0.599
			c-0.988,0-1.766-0.359-2.334-1.077C167.221,505.197,166.881,503.805,166.881,501.869z M168.183,501.869
			c0,1.687,0.195,2.809,0.584,3.367c0.399,0.559,0.888,0.838,1.466,0.838s1.062-0.279,1.452-0.838
			c0.399-0.559,0.599-1.681,0.599-3.367c0-1.695-0.2-2.818-0.599-3.366c-0.389-0.559-0.878-0.839-1.466-0.839
			c-0.579,0-1.043,0.245-1.392,0.733C168.398,499.026,168.183,500.184,168.183,501.869z M178.729,506.942v-2.469h-4.459v-1.152
			l4.699-6.659H180v6.659h1.392v1.152H180v2.469H178.729z M178.729,503.321v-4.64l-3.217,4.64H178.729z"/>
		<path fill="#CFE2F3" d="M38.948,560.712L38.948,560.712c0-6.782,37.23-12.28,83.157-12.28s83.157,5.498,83.157,12.28v49.122
			c0,6.783-37.23,12.281-83.157,12.281s-83.157-5.498-83.157-12.281V560.712z"/>
		<path fill-opacity="0" d="M205.262,560.712L205.262,560.712c0,6.782-37.23,12.28-83.157,12.28s-83.157-5.498-83.157-12.28"/>
		<path fill-opacity="0" d="M38.948,560.712L38.948,560.712c0-6.782,37.23-12.28,83.157-12.28s83.157,5.498,83.157,12.28v49.122
			c0,6.783-37.23,12.281-83.157,12.281s-83.157-5.498-83.157-12.281V560.712z"/>
		<path fill="none" stroke="#000000" stroke-width="2" stroke-linejoin="round" stroke-miterlimit="10" d="M205.262,560.712
			L205.262,560.712c0,6.782-37.23,12.28-83.157,12.28s-83.157-5.498-83.157-12.28"/>
		<path fill="none" stroke="#000000" stroke-width="2" stroke-linejoin="round" stroke-miterlimit="10" d="M38.948,560.712
			L38.948,560.712c0-6.782,37.23-12.28,83.157-12.28s83.157,5.498,83.157,12.28v49.122c0,6.783-37.23,12.281-83.157,12.281
			s-83.157-5.498-83.157-12.281V560.712z"/>
		<path fill-opacity="0" d="M10.87,576.781h224.218v55.775H10.87V576.781z"/>
		<path d="M70.108,596.492l1.302,0.149c-0.2,0.769-0.579,1.362-1.137,1.781c-0.559,0.419-1.272,0.628-2.14,0.628
			c-1.087,0-1.95-0.334-2.589-1.003c-0.639-0.668-0.958-1.61-0.958-2.828c0-1.247,0.324-2.215,0.973-2.903
			c0.648-0.698,1.486-1.047,2.514-1.047c0.998,0,1.811,0.339,2.439,1.018c0.628,0.678,0.943,1.631,0.943,2.858
			c0,0.079,0,0.194,0,0.344h-5.567c0.05,0.818,0.279,1.446,0.688,1.886c0.419,0.429,0.942,0.644,1.571,0.644
			c0.458,0,0.853-0.12,1.182-0.359C69.659,597.41,69.918,597.021,70.108,596.492z M65.963,594.441h4.16
			c-0.06-0.628-0.219-1.097-0.479-1.406c-0.399-0.489-0.917-0.733-1.556-0.733c-0.588,0-1.083,0.194-1.481,0.584
			C66.217,593.274,66.003,593.793,65.963,594.441z M74.892,598.887l-2.843-7.453h1.332l1.602,4.46
			c0.169,0.488,0.329,0.992,0.479,1.512c0.11-0.399,0.265-0.873,0.464-1.422l1.661-4.55h1.302l-2.829,7.453H74.892z M84.933,596.492
			l1.302,0.149c-0.2,0.769-0.579,1.362-1.137,1.781c-0.559,0.419-1.272,0.628-2.14,0.628c-1.087,0-1.951-0.334-2.589-1.003
			c-0.639-0.668-0.958-1.61-0.958-2.828c0-1.247,0.324-2.215,0.973-2.903c0.649-0.698,1.487-1.047,2.514-1.047
			c0.998,0,1.811,0.339,2.439,1.018c0.628,0.678,0.943,1.631,0.943,2.858c0,0.079,0,0.194,0,0.344h-5.567
			c0.05,0.818,0.279,1.446,0.688,1.886c0.419,0.429,0.942,0.644,1.571,0.644c0.458,0,0.853-0.12,1.182-0.359
			C84.484,597.41,84.744,597.021,84.933,596.492z M80.788,594.441h4.16c-0.06-0.628-0.219-1.097-0.479-1.406
			c-0.399-0.489-0.917-0.733-1.556-0.733c-0.589,0-1.083,0.194-1.481,0.584C81.042,593.274,80.828,593.793,80.788,594.441z
			 M87.637,598.887v-7.453h1.137v1.062c0.549-0.817,1.342-1.227,2.379-1.227c0.449,0,0.858,0.079,1.227,0.239
			c0.379,0.159,0.664,0.374,0.853,0.644c0.189,0.259,0.319,0.568,0.389,0.928c0.05,0.229,0.075,0.639,0.075,1.227v4.58h-1.272
			v-4.535c0-0.509-0.05-0.888-0.15-1.137c-0.089-0.26-0.259-0.464-0.509-0.613c-0.249-0.16-0.543-0.24-0.883-0.24
			c-0.539,0-1.002,0.17-1.392,0.509c-0.389,0.34-0.583,0.988-0.583,1.946v4.07H87.637z M98.212,597.764l0.179,1.107
			c-0.359,0.08-0.678,0.12-0.958,0.12c-0.459,0-0.818-0.075-1.078-0.225c-0.25-0.149-0.424-0.339-0.523-0.568
			c-0.1-0.239-0.15-0.738-0.15-1.497v-4.279h-0.928v-0.988h0.928v-1.841l1.257-0.763v2.604h1.272v0.988H96.94v4.354
			c0,0.359,0.02,0.594,0.06,0.703c0.05,0.1,0.125,0.18,0.225,0.239c0.1,0.061,0.239,0.09,0.419,0.09
			C97.793,597.809,97.983,597.794,98.212,597.764z M98.85,596.656l1.242-0.194c0.07,0.499,0.265,0.883,0.583,1.152
			c0.319,0.27,0.769,0.404,1.347,0.404s1.007-0.115,1.287-0.345c0.28-0.239,0.419-0.519,0.419-0.838
			c0-0.289-0.125-0.514-0.375-0.673c-0.169-0.12-0.598-0.265-1.287-0.435c-0.928-0.229-1.571-0.429-1.931-0.599
			c-0.349-0.18-0.619-0.419-0.808-0.718c-0.18-0.3-0.27-0.634-0.27-1.003c0-0.329,0.075-0.634,0.225-0.913
			c0.15-0.289,0.354-0.523,0.614-0.703c0.199-0.149,0.469-0.274,0.808-0.374c0.339-0.1,0.703-0.149,1.092-0.149
			c0.579,0,1.087,0.085,1.526,0.254c0.449,0.17,0.778,0.399,0.988,0.688c0.209,0.279,0.354,0.663,0.434,1.152l-1.227,0.165
			c-0.06-0.39-0.225-0.688-0.494-0.898c-0.269-0.22-0.648-0.329-1.137-0.329c-0.579,0-0.993,0.1-1.242,0.3
			c-0.25,0.189-0.374,0.414-0.374,0.673c0,0.16,0.05,0.305,0.149,0.435c0.11,0.14,0.274,0.254,0.494,0.344
			c0.12,0.04,0.489,0.145,1.107,0.314c0.898,0.239,1.521,0.434,1.871,0.583c0.359,0.15,0.638,0.374,0.838,0.674
			c0.2,0.289,0.299,0.648,0.299,1.077c0,0.419-0.125,0.813-0.374,1.183c-0.24,0.369-0.594,0.658-1.062,0.868
			c-0.459,0.199-0.983,0.299-1.571,0.299c-0.968,0-1.706-0.199-2.215-0.599C99.309,598.054,98.989,597.455,98.85,596.656z
			 M105.868,595.804v-1.272h3.891v1.272H105.868z M117.322,597.674v1.213h-6.794c-0.01-0.3,0.04-0.594,0.149-0.883
			c0.17-0.459,0.444-0.913,0.823-1.362c0.389-0.449,0.943-0.968,1.661-1.557c1.117-0.918,1.871-1.641,2.26-2.17
			c0.399-0.538,0.599-1.047,0.599-1.526c0-0.498-0.18-0.918-0.539-1.257c-0.359-0.349-0.828-0.523-1.407-0.523
			c-0.608,0-1.097,0.185-1.466,0.554c-0.359,0.359-0.539,0.862-0.539,1.511l-1.302-0.134c0.09-0.968,0.424-1.706,1.003-2.215
			s1.356-0.764,2.334-0.764c0.987,0,1.766,0.274,2.334,0.823c0.579,0.549,0.868,1.227,0.868,2.035c0,0.409-0.084,0.813-0.254,1.212
			c-0.16,0.399-0.439,0.818-0.838,1.257c-0.389,0.439-1.038,1.043-1.945,1.812c-0.758,0.628-1.247,1.058-1.467,1.286
			c-0.209,0.229-0.384,0.459-0.523,0.688H117.322z M118.499,593.813c0-1.218,0.125-2.195,0.374-2.934s0.619-1.307,1.107-1.706
			c0.499-0.408,1.123-0.613,1.871-0.613c0.549,0,1.033,0.115,1.452,0.345c0.419,0.219,0.763,0.538,1.033,0.957
			c0.269,0.409,0.479,0.918,0.628,1.526c0.16,0.599,0.239,1.407,0.239,2.425c0,1.207-0.125,2.185-0.374,2.933
			c-0.25,0.738-0.624,1.312-1.122,1.722c-0.489,0.398-1.107,0.599-1.856,0.599c-0.988,0-1.766-0.359-2.334-1.078
			C118.838,597.141,118.499,595.749,118.499,593.813z M119.801,593.813c0,1.686,0.195,2.809,0.584,3.367
			c0.399,0.559,0.888,0.838,1.466,0.838s1.062-0.279,1.452-0.838c0.399-0.559,0.599-1.682,0.599-3.367
			c0-1.696-0.2-2.818-0.599-3.367c-0.389-0.559-0.878-0.838-1.466-0.838c-0.579,0-1.043,0.244-1.392,0.733
			C120.016,590.97,119.801,592.127,119.801,593.813z M131.064,598.887h-1.272v-8.052c-0.299,0.29-0.698,0.584-1.197,0.883
			c-0.489,0.29-0.928,0.504-1.317,0.644v-1.227c0.699-0.329,1.312-0.729,1.841-1.197s0.903-0.928,1.123-1.377h0.823V598.887z
			 M134.112,596.192l1.317-0.119c0.1,0.648,0.33,1.137,0.688,1.466c0.359,0.319,0.793,0.479,1.302,0.479
			c0.609,0,1.123-0.229,1.542-0.688s0.628-1.062,0.628-1.811c0-0.729-0.204-1.297-0.613-1.706c-0.399-0.419-0.928-0.629-1.586-0.629
			c-0.409,0-0.778,0.095-1.107,0.284c-0.319,0.18-0.574,0.414-0.763,0.704l-1.182-0.15l0.988-5.282h5.118v1.212h-4.1l-0.554,2.754
			c0.619-0.429,1.267-0.644,1.945-0.644c0.898,0,1.651,0.314,2.26,0.942c0.619,0.619,0.928,1.417,0.928,2.395
			c0,0.928-0.27,1.731-0.808,2.409c-0.658,0.838-1.556,1.258-2.694,1.258c-0.938,0-1.706-0.26-2.304-0.778
			C134.526,597.759,134.192,597.061,134.112,596.192z M141.77,595.804v-1.272h3.891v1.272H141.77z M146.594,593.813
			c0-1.218,0.125-2.195,0.374-2.934s0.619-1.307,1.107-1.706c0.499-0.408,1.122-0.613,1.871-0.613c0.548,0,1.032,0.115,1.452,0.345
			c0.419,0.219,0.763,0.538,1.032,0.957c0.27,0.409,0.479,0.918,0.629,1.526c0.159,0.599,0.239,1.407,0.239,2.425
			c0,1.207-0.125,2.185-0.374,2.933c-0.25,0.738-0.624,1.312-1.123,1.722c-0.489,0.398-1.107,0.599-1.855,0.599
			c-0.988,0-1.766-0.359-2.334-1.078C146.933,597.141,146.594,595.749,146.594,593.813z M147.896,593.813
			c0,1.686,0.194,2.809,0.583,3.367c0.399,0.559,0.888,0.838,1.467,0.838s1.062-0.279,1.452-0.838
			c0.399-0.559,0.599-1.682,0.599-3.367c0-1.696-0.2-2.818-0.599-3.367c-0.389-0.559-0.878-0.838-1.467-0.838
			c-0.579,0-1.042,0.244-1.392,0.733C148.11,590.97,147.896,592.127,147.896,593.813z M159.159,598.887h-1.272v-8.052
			c-0.299,0.29-0.699,0.584-1.197,0.883c-0.489,0.29-0.928,0.504-1.317,0.644v-1.227c0.698-0.329,1.312-0.729,1.841-1.197
			c0.528-0.469,0.903-0.928,1.122-1.377h0.823V598.887z M162.057,595.804v-1.272h3.891v1.272H162.057z M166.881,593.813
			c0-1.218,0.125-2.195,0.374-2.934s0.619-1.307,1.107-1.706c0.499-0.408,1.123-0.613,1.871-0.613c0.549,0,1.033,0.115,1.452,0.345
			c0.419,0.219,0.763,0.538,1.033,0.957c0.269,0.409,0.479,0.918,0.628,1.526c0.16,0.599,0.239,1.407,0.239,2.425
			c0,1.207-0.125,2.185-0.374,2.933c-0.25,0.738-0.624,1.312-1.123,1.722c-0.489,0.398-1.107,0.599-1.855,0.599
			c-0.988,0-1.766-0.359-2.334-1.078C167.221,597.141,166.881,595.749,166.881,593.813z M168.183,593.813
			c0,1.686,0.195,2.809,0.584,3.367c0.399,0.559,0.888,0.838,1.466,0.838s1.062-0.279,1.452-0.838
			c0.399-0.559,0.599-1.682,0.599-3.367c0-1.696-0.2-2.818-0.599-3.367c-0.389-0.559-0.878-0.838-1.466-0.838
			c-0.579,0-1.043,0.244-1.392,0.733C168.398,590.97,168.183,592.127,168.183,593.813z M178.729,598.887v-2.47h-4.459v-1.152
			l4.699-6.659H180v6.659h1.392v1.152H180v2.47H178.729z M178.729,595.265v-4.639l-3.217,4.639H178.729z"/>
		<path fill-opacity="0" d="M228.421,209.077L228.421,209.077c16.86,0,30.527,2.278,30.527,5.088v180.876
			c0,2.811,13.667,5.088,30.527,5.088l0,0c-16.859,0-30.527,2.277-30.527,5.088v180.876c0,2.81-13.667,5.088-30.527,5.088V209.077z"
			/>
		<path fill-opacity="0" d="M228.421,209.077L228.421,209.077c16.86,0,30.527,2.278,30.527,5.088v180.876
			c0,2.811,13.667,5.088,30.527,5.088l0,0c-16.859,0-30.527,2.277-30.527,5.088v180.876c0,2.81-13.667,5.088-30.527,5.088"/>
		<path fill="none" stroke="#000000" stroke-width="2" stroke-linejoin="round" stroke-miterlimit="10" d="M228.421,209.077
			L228.421,209.077c16.86,0,30.527,2.278,30.527,5.088v180.876c0,2.811,13.667,5.088,30.527,5.088l0,0
			c-16.859,0-30.527,2.277-30.527,5.088v180.876c0,2.81-13.667,5.088-30.527,5.088"/>
	</g>
	<g clip-path="url(#SVGID_2_)">
		<text transform="matrix(1 0 0 1 313.5176 385.373)"><tspan x="0" y="0" font-family="'MyriadPro-Semibold'" font-size="29.3302">/interactions</tspan><tspan x="0" y="35.196" font-family="'MyriadPro-Regular'" font-size="29.3302">    _type:interaction</tspan></text>
	</g>
</g>
</svg>
