<?xml version="1.0" standalone="yes"?>

<svg version="1.1" viewBox="0.0 0.0 887.0 601.0" fill="none" stroke="none" stroke-linecap="square" stroke-miterlimit="10" xmlns="http://www.w3.org/2000/svg" xmlns:xlink="http://www.w3.org/1999/xlink"><clipPath id="p.0"><path d="m0 0l887.0 0l0 601.0l-887.0 0l0 -601.0z" clip-rule="nonzero"></path></clipPath><g clip-path="url(#p.0)"><path fill="#000000" fill-opacity="0.0" d="m0 0l887.47504 0l0 601.1916l-887.47504 0z" fill-rule="nonzero"></path><path fill="#ffffff" d="m-13.146981 -10.755905l914.3307 0l0 625.10236l-914.3307 0z" fill-rule="nonzero"></path><path fill="#cfe2f3" d="m77.45407 229.58826l0 0c0 -8.967209 7.269348 -16.236557 16.236542 -16.236557l158.39305 0c4.306198 0 8.43602 1.7106323 11.480972 4.7555847c3.0449524 3.0449371 4.7555847 7.174774 4.7555847 11.480972l0 64.944214c0 8.967224 -7.269348 16.236572 -16.236557 16.236572l-158.39305 0c-8.967194 0 -16.236542 -7.269348 -16.236542 -16.236572z" fill-rule="nonzero"></path><path stroke="#000000" stroke-width="2.0" stroke-linejoin="round" stroke-linecap="butt" d="m77.45407 229.58826l0 0c0 -8.967209 7.269348 -16.236557 16.236542 -16.236557l158.39305 0c4.306198 0 8.43602 1.7106323 11.480972 4.7555847c3.0449524 3.0449371 4.7555847 7.174774 4.7555847 11.480972l0 64.944214c0 8.967224 -7.269348 16.236572 -16.236557 16.236572l-158.39305 0c-8.967194 0 -16.236542 -7.269348 -16.236542 -16.236572z" fill-rule="nonzero"></path><path fill="#cfe2f3" d="m37.965878 412.54617l0 0c0 -6.784088 5.499607 -12.283691 12.2837105 -12.283691l61.007385 0c3.257843 0 6.382248 1.2941589 8.68589 3.5978088c2.3036423 2.3036194 3.5978165 5.4280396 3.5978165 8.685883l0 49.13336c0 6.7841187 -5.4996033 12.283722 -12.283707 12.283722l-61.007385 0c-6.7841034 0 -12.2837105 -5.4996033 -12.2837105 -12.283722z" fill-rule="nonzero"></path><path stroke="#000000" stroke-width="2.0" stroke-linejoin="round" stroke-linecap="butt" d="m37.965878 412.54617l0 0c0 -6.784088 5.499607 -12.283691 12.2837105 -12.283691l61.007385 0c3.257843 0 6.382248 1.2941589 8.68589 3.5978088c2.3036423 2.3036194 3.5978165 5.4280396 3.5978165 8.685883l0 49.13336c0 6.7841187 -5.4996033 12.283722 -12.283707 12.283722l-61.007385 0c-6.7841034 0 -12.2837105 -5.4996033 -12.2837105 -12.283722z" fill-rule="nonzero"></path><path fill="#cfe2f3" d="m141.96588 412.54617l0 0c0 -6.784088 5.4996033 -12.283691 12.283707 -12.283691l61.007385 0c3.257843 0 6.382248 1.2941589 8.685898 3.5978088c2.3036346 2.3036194 3.5978088 5.4280396 3.5978088 8.685883l0 49.13336c0 6.7841187 -5.4996033 12.283722 -12.283707 12.283722l-61.007385 0c-6.7841034 0 -12.283707 -5.4996033 -12.283707 -12.283722z" fill-rule="nonzero"></path><path stroke="#000000" stroke-width="2.0" stroke-linejoin="round" stroke-linecap="butt" d="m141.96588 412.54617l0 0c0 -6.784088 5.4996033 -12.283691 12.283707 -12.283691l61.007385 0c3.257843 0 6.382248 1.2941589 8.685898 3.5978088c2.3036346 2.3036194 3.5978088 5.4280396 3.5978088 8.685883l0 49.13336c0 6.7841187 -5.4996033 12.283722 -12.283707 12.283722l-61.007385 0c-6.7841034 0 -12.283707 -5.4996033 -12.283707 -12.283722z" fill-rule="nonzero"></path><path fill="#cfe2f3" d="m245.96588 412.54617l0 0c0 -6.784088 5.4996033 -12.283691 12.283722 -12.283691l61.007355 0c3.257843 0 6.382263 1.2941589 8.685913 3.5978088c2.30365 2.3036194 3.5978088 5.4280396 3.5978088 8.685883l0 49.13336c0 6.7841187 -5.4996033 12.283722 -12.283722 12.283722l-61.007355 0c-6.7841187 0 -12.283722 -5.4996033 -12.283722 -12.283722z" fill-rule="nonzero"></path><path stroke="#000000" stroke-width="2.0" stroke-linejoin="round" stroke-linecap="butt" d="m245.96588 412.54617l0 0c0 -6.784088 5.4996033 -12.283691 12.283722 -12.283691l61.007355 0c3.257843 0 6.382263 1.2941589 8.685913 3.5978088c2.30365 2.3036194 3.5978088 5.4280396 3.5978088 8.685883l0 49.13336c0 6.7841187 -5.4996033 12.283722 -12.283722 12.283722l-61.007355 0c-6.7841187 0 -12.283722 -5.4996033 -12.283722 -12.283722z" fill-rule="nonzero"></path><path fill="#ffe599" d="m164.22572 365.40158l7.897629 0l0 -38.850403l15.795288 0l0 38.850403l7.897629 0l-15.795273 15.795258z" fill-rule="nonzero"></path><path stroke="#000000" stroke-width="2.0" stroke-linejoin="round" stroke-linecap="butt" d="m164.22572 365.40158l7.897629 0l0 -38.850403l15.795288 0l0 38.850403l7.897629 0l-15.795273 15.795258z" fill-rule="nonzero"></path><path fill="#000000" fill-opacity="0.0" d="m107.72966 243.52493l131.62204 0l0 36.850403l-131.62204 0z" fill-rule="nonzero"></path><path fill="#000000" d="m151.14514 270.44495l0 -13.59375l1.84375 0l7.140625 10.671875l0 -10.671875l1.71875 0l0 13.59375l-1.84375 0l-7.140625 -10.6875l0 10.6875l-1.71875 0zm12.972946 0.8125l1.609375 0.25q0.109375 0.75 0.578125 1.09375q0.609375 0.453125 1.6875 0.453125q1.171875 0 1.796875 -0.46875q0.625 -0.453125 0.859375 -1.28125q0.125 -0.515625 0.109375 -2.15625q-1.09375 1.296875 -2.71875 1.296875q-2.03125 0 -3.15625 -1.46875q-1.109375 -1.46875 -1.109375 -3.515625q0 -1.40625 0.515625 -2.59375q0.515625 -1.203125 1.484375 -1.84375q0.96875 -0.65625 2.265625 -0.65625q1.75 0 2.875 1.40625l0 -1.1875l1.546875 0l0 8.515625q0 2.3125 -0.46875 3.265625q-0.46875 0.96875 -1.484375 1.515625q-1.015625 0.5625 -2.5 0.5625q-1.765625 0 -2.859375 -0.796875q-1.078125 -0.796875 -1.03125 -2.390625zm1.375 -5.921875q0 1.953125 0.765625 2.84375q0.78125 0.890625 1.9375 0.890625q1.140625 0 1.921875 -0.890625q0.78125 -0.890625 0.78125 -2.78125q0 -1.8125 -0.8125 -2.71875q-0.796875 -0.921875 -1.921875 -0.921875q-1.109375 0 -1.890625 0.90625q-0.78125 0.890625 -0.78125 2.671875zm9.313217 -6.578125l0 -1.90625l1.671875 0l0 1.90625l-1.671875 0zm0 11.6875l0 -9.859375l1.671875 0l0 9.859375l-1.671875 0zm4.129196 0l0 -9.859375l1.5 0l0 1.40625q1.09375 -1.625 3.140625 -1.625q0.890625 0 1.640625 0.328125q0.75 0.3125 1.109375 0.84375q0.375 0.515625 0.53125 1.21875q0.09375 0.46875 0.09375 1.625l0 6.0625l-1.671875 0l0 -6.0q0 -1.015625 -0.203125 -1.515625q-0.1875 -0.515625 -0.6875 -0.8125q-0.5 -0.296875 -1.171875 -0.296875q-1.0625 0 -1.84375 0.671875q-0.765625 0.671875 -0.765625 2.578125l0 5.375l-1.671875 0zm9.266342 0l3.59375 -5.125l-3.328125 -4.734375l2.09375 0l1.515625 2.3125q0.421875 0.65625 0.671875 1.109375q0.421875 -0.609375 0.765625 -1.09375l1.65625 -2.328125l1.984375 0l-3.390625 4.640625l3.65625 5.21875l-2.046875 0l-2.03125 -3.0625l-0.53125 -0.828125l-2.59375 3.890625l-2.015625 0z" fill-rule="nonzero"></path><path fill="#000000" fill-opacity="0.0" d="m78.77165 476.19684l214.5512 0l0 54.64569l-214.5512 0z" fill-rule="nonzero"></path><path fill="#000000" d="m129.89027 498.74185l1.6875 -0.140625q0.125 1.015625 0.5625 1.671875q0.4375 0.65625 1.359375 1.0625q0.9375 0.40625 2.09375 0.40625q1.03125 0 1.8125 -0.3125q0.796875 -0.3125 1.1875 -0.84375q0.390625 -0.53125 0.390625 -1.15625q0 -0.640625 -0.375 -1.109375q-0.375 -0.484375 -1.234375 -0.8125q-0.546875 -0.21875 -2.421875 -0.65625q-1.875 -0.453125 -2.625 -0.859375q-0.96875 -0.515625 -1.453125 -1.265625q-0.46875 -0.75 -0.46875 -1.6875q0 -1.03125 0.578125 -1.921875q0.59375 -0.90625 1.703125 -1.359375q1.125 -0.46875 2.5 -0.46875q1.515625 0 2.671875 0.484375q1.15625 0.484375 1.765625 1.4375q0.625 0.9375 0.671875 2.140625l-1.71875 0.125q-0.140625 -1.28125 -0.953125 -1.9375q-0.796875 -0.671875 -2.359375 -0.671875q-1.625 0 -2.375 0.609375q-0.75 0.59375 -0.75 1.4375q0 0.734375 0.53125 1.203125q0.515625 0.46875 2.703125 0.96875q2.203125 0.5 3.015625 0.875q1.1875 0.546875 1.75 1.390625q0.578125 0.828125 0.578125 1.921875q0 1.09375 -0.625 2.0625q-0.625 0.953125 -1.796875 1.484375q-1.15625 0.53125 -2.609375 0.53125q-1.84375 0 -3.09375 -0.53125q-1.25 -0.546875 -1.96875 -1.625q-0.703125 -1.078125 -0.734375 -2.453125zm16.490448 2.875l0.234375 1.484375q-0.703125 0.140625 -1.265625 0.140625q-0.90625 0 -1.40625 -0.28125q-0.5 -0.296875 -0.703125 -0.75q-0.203125 -0.46875 -0.203125 -1.984375l0 -5.65625l-1.234375 0l0 -1.3125l1.234375 0l0 -2.4375l1.65625 -1.0l0 3.4375l1.6875 0l0 1.3125l-1.6875 0l0 5.75q0 0.71875 0.078125 0.921875q0.09375 0.203125 0.296875 0.328125q0.203125 0.125 0.578125 0.125q0.265625 0 0.734375 -0.078125zm0.90205383 -3.421875q0 -2.734375 1.53125 -4.0625q1.265625 -1.09375 3.09375 -1.09375q2.03125 0 3.3125 1.34375q1.296875 1.328125 1.296875 3.671875q0 1.90625 -0.578125 3.0q-0.5625 1.078125 -1.65625 1.6875q-1.078125 0.59375 -2.375 0.59375q-2.0625 0 -3.34375 -1.328125q-1.28125 -1.328125 -1.28125 -3.8125zm1.71875 0q0 1.890625 0.828125 2.828125q0.828125 0.9375 2.078125 0.9375q1.25 0 2.0625 -0.9375q0.828125 -0.953125 0.828125 -2.890625q0 -1.828125 -0.828125 -2.765625q-0.828125 -0.9375 -2.0625 -0.9375q-1.25 0 -2.078125 0.9375q-0.828125 0.9375 -0.828125 2.828125zm9.266342 4.921875l0 -9.859375l1.5 0l0 1.5q0.578125 -1.046875 1.0625 -1.375q0.484375 -0.34375 1.078125 -0.34375q0.84375 0 1.71875 0.546875l-0.578125 1.546875q-0.609375 -0.359375 -1.234375 -0.359375q-0.546875 0 -0.984375 0.328125q-0.421875 0.328125 -0.609375 0.90625q-0.28125 0.890625 -0.28125 1.953125l0 5.15625l-1.671875 0zm6.228302 0l0 -9.859375l1.5 0l0 1.390625q0.453125 -0.71875 1.21875 -1.15625q0.78125 -0.453125 1.765625 -0.453125q1.09375 0 1.796875 0.453125q0.703125 0.453125 0.984375 1.28125q1.171875 -1.734375 3.046875 -1.734375q1.46875 0 2.25 0.8125q0.796875 0.8125 0.796875 2.5l0 6.765625l-1.671875 0l0 -6.203125q0 -1.0 -0.15625 -1.4375q-0.15625 -0.453125 -0.59375 -0.71875q-0.421875 -0.265625 -1.0 -0.265625q-1.03125 0 -1.71875 0.6875q-0.6875 0.6875 -0.6875 2.21875l0 5.71875l-1.671875 0l0 -6.40625q0 -1.109375 -0.40625 -1.65625q-0.40625 -0.5625 -1.34375 -0.5625q-0.703125 0 -1.3125 0.375q-0.59375 0.359375 -0.859375 1.078125q-0.265625 0.71875 -0.265625 2.0625l0 5.109375l-1.671875 0zm30.64598 -4.765625l1.796875 0.453125q-0.5625 2.21875 -2.03125 3.390625q-1.46875 1.15625 -3.59375 1.15625q-2.203125 0 -3.578125 -0.890625q-1.375 -0.90625 -2.09375 -2.59375q-0.71875 -1.703125 -0.71875 -3.65625q0 -2.125 0.796875 -3.703125q0.8125 -1.578125 2.3125 -2.390625q1.5 -0.828125 3.296875 -0.828125q2.046875 0 3.4375 1.046875q1.390625 1.03125 1.9375 2.90625l-1.765625 0.421875q-0.46875 -1.484375 -1.375 -2.15625q-0.90625 -0.6875 -2.265625 -0.6875q-1.5625 0 -2.625 0.75q-1.046875 0.75 -1.484375 2.03125q-0.421875 1.265625 -0.421875 2.609375q0 1.734375 0.5 3.03125q0.515625 1.28125 1.578125 1.921875q1.078125 0.640625 2.3125 0.640625q1.515625 0 2.5625 -0.859375q1.046875 -0.875 1.421875 -2.59375zm3.5198212 4.765625l0 -13.59375l1.671875 0l0 13.59375l-1.671875 0zm10.629196 0l0 -1.453125q-1.140625 1.671875 -3.125 1.671875q-0.859375 0 -1.625 -0.328125q-0.75 -0.34375 -1.125 -0.84375q-0.359375 -0.5 -0.515625 -1.234375q-0.09375 -0.5 -0.09375 -1.5625l0 -6.109375l1.671875 0l0 5.46875q0 1.3125 0.09375 1.765625q0.15625 0.65625 0.671875 1.03125q0.515625 0.375 1.265625 0.375q0.75 0 1.40625 -0.375q0.65625 -0.390625 0.921875 -1.046875q0.28125 -0.671875 0.28125 -1.9375l0 -5.28125l1.671875 0l0 9.859375l-1.5 0zm3.2507172 -2.9375l1.65625 -0.265625q0.140625 1.0 0.765625 1.53125q0.640625 0.515625 1.78125 0.515625q1.15625 0 1.703125 -0.46875q0.5625 -0.46875 0.5625 -1.09375q0 -0.5625 -0.484375 -0.890625q-0.34375 -0.21875 -1.703125 -0.5625q-1.84375 -0.46875 -2.5625 -0.796875q-0.703125 -0.34375 -1.078125 -0.9375q-0.359375 -0.609375 -0.359375 -1.328125q0 -0.65625 0.296875 -1.21875q0.3125 -0.5625 0.828125 -0.9375q0.390625 -0.28125 1.0625 -0.484375q0.671875 -0.203125 1.4375 -0.203125q1.171875 0 2.046875 0.34375q0.875 0.328125 1.28125 0.90625q0.421875 0.5625 0.578125 1.515625l-1.625 0.21875q-0.109375 -0.75 -0.65625 -1.171875q-0.53125 -0.4375 -1.5 -0.4375q-1.15625 0 -1.640625 0.390625q-0.484375 0.375 -0.484375 0.875q0 0.328125 0.203125 0.59375q0.203125 0.265625 0.640625 0.4375q0.25 0.09375 1.46875 0.4375q1.765625 0.46875 2.46875 0.765625q0.703125 0.296875 1.09375 0.875q0.40625 0.578125 0.40625 1.4375q0 0.828125 -0.484375 1.578125q-0.484375 0.734375 -1.40625 1.140625q-0.921875 0.390625 -2.078125 0.390625q-1.921875 0 -2.9375 -0.796875q-1.0 -0.796875 -1.28125 -2.359375zm13.65625 1.4375l0.234375 1.484375q-0.703125 0.140625 -1.265625 0.140625q-0.90625 0 -1.40625 -0.28125q-0.5 -0.296875 -0.703125 -0.75q-0.203125 -0.46875 -0.203125 -1.984375l0 -5.65625l-1.234375 0l0 -1.3125l1.234375 0l0 -2.4375l1.65625 -1.0l0 3.4375l1.6875 0l0 1.3125l-1.6875 0l0 5.75q0 0.71875 0.078125 0.921875q0.09375 0.203125 0.296875 0.328125q0.203125 0.125 0.578125 0.125q0.265625 0 0.734375 -0.078125zm8.277054 -1.671875l1.71875 0.21875q-0.40625 1.5 -1.515625 2.34375q-1.09375 0.828125 -2.8125 0.828125q-2.15625 0 -3.421875 -1.328125q-1.265625 -1.328125 -1.265625 -3.734375q0 -2.484375 1.265625 -3.859375q1.28125 -1.375 3.328125 -1.375q1.984375 0 3.234375 1.34375q1.25 1.34375 1.25 3.796875q0 0.140625 -0.015625 0.4375l-7.34375 0q0.09375 1.625 0.921875 2.484375q0.828125 0.859375 2.0625 0.859375q0.90625 0 1.546875 -0.46875q0.65625 -0.484375 1.046875 -1.546875zm-5.484375 -2.703125l5.5 0q-0.109375 -1.234375 -0.625 -1.859375q-0.796875 -0.96875 -2.078125 -0.96875q-1.140625 0 -1.9375 0.78125q-0.78125 0.765625 -0.859375 2.046875zm9.094467 5.875l0 -9.859375l1.5 0l0 1.5q0.578125 -1.046875 1.0625 -1.375q0.484375 -0.34375 1.078125 -0.34375q0.84375 0 1.71875 0.546875l-0.578125 1.546875q-0.609375 -0.359375 -1.234375 -0.359375q-0.546875 0 -0.984375 0.328125q-0.421875 0.328125 -0.609375 0.90625q-0.28125 0.890625 -0.28125 1.953125l0 5.15625l-1.671875 0z" fill-rule="nonzero"></path><path fill="#ead1dc" d="m80.66971 59.56134l0 0c-1.942131 -8.698105 4.434288 -17.3087 16.423523 -22.177994c11.989227 -4.869293 27.488617 -5.1433144 39.921204 -0.7057915l0 0c4.4039917 -5.057438 12.4646 -8.54925 21.743637 -9.4192295c9.279037 -0.86998177 18.686646 0.98405266 25.377213 5.0012913l0 0c3.7516327 -4.5853996 11.118057 -7.6662025 19.485245 -8.149178c8.367203 -0.4829769 16.551025 1.7002239 21.64743 5.774891l0 0c6.777893 -4.86051 17.561676 -6.906988 27.685165 -5.253908c10.123505 1.6530781 17.768402 6.708805 19.62674 12.979536l0 0c8.304077 1.3804054 15.221191 4.88958 18.964172 9.620865c3.7430115 4.731285 3.9447327 10.220551 0.55300903 15.049549l0 0c8.1770935 6.4858704 10.089905 15.128212 5.024658 22.701866c-5.065277 7.5736465 -16.347626 12.9407425 -29.636688 14.098389c-0.093688965 7.108139 -6.4903564 13.630486 -16.724457 17.053032c-10.2341 3.422554 -22.707565 3.2108688 -32.612564 -0.55345917c-4.2190094 8.513229 -16.0941 14.777184 -30.494781 16.085594c-14.400696 1.3084259 -28.745392 -2.5732574 -36.836655 -9.968002c-9.918182 3.6448975 -21.819168 4.69487 -33.018356 2.9130783c-11.199188 -1.781784 -20.75319 -6.2452545 -26.506828 -12.383537l0 0c-10.135139 0.7228012 -19.934418 -2.4773483 -24.534492 -8.012215c-4.600071 -5.534874 -3.0216904 -12.226227 3.9517975 -16.753166l0 0c-9.040806 -3.2428818 -13.653973 -9.677841 -11.43391 -15.949295c2.2200623 -6.2714615 10.770275 -10.958275 21.192043 -11.616463z" fill-rule="nonzero"></path><path fill="#000000" fill-opacity="0.0" d="m70.711235 87.46233l0 0c4.266388 1.5303268 9.195061 2.2245178 14.124268 1.9893646m6.4562073 22.776573c2.1197433 -0.15117645 4.1974945 -0.47129822 6.1796646 -0.95212555m53.342575 10.422188c-1.4908905 -1.3625565 -2.739151 -2.8185577 -3.7234802 -4.3432007m71.05748 -1.7746506l0 0c0.7691803 -1.5520935 1.2675476 -3.1495285 1.4867859 -4.7656555m47.84836 -11.733322c0.099731445 -7.567711 -6.953247 -14.496788 -18.12944 -17.810982m42.741257 -18.988476c-1.809967 2.5769463 -4.5730286 4.8629265 -8.072632 6.678692m-11.442871 -31.349777l0 0c0.30841064 1.0406303 0.45114136 2.096901 0.4262085 3.154171m-47.737305 -10.879488l0 0c-1.6907501 1.2124557 -3.0837097 2.5673618 -4.135483 4.022524m-36.99759 -1.6487656l0 0c-0.90101624 1.1012611 -1.5738525 2.26659 -2.0029755 3.4691353m-45.11856 0.9488945l0 0c2.6307373 0.9389763 5.064514 2.0691376 7.247879 3.365654m-63.591873 19.518253l0 0c0.2676773 1.198822 0.6906204 2.382866 1.2648773 3.54105" fill-rule="nonzero"></path><path stroke="#000000" stroke-width="2.0" stroke-linejoin="round" stroke-linecap="butt" d="m80.66971 59.56134l0 0c-1.942131 -8.698105 4.434288 -17.3087 16.423523 -22.177994c11.989227 -4.869293 27.488617 -5.1433144 39.921204 -0.7057915l0 0c4.4039917 -5.057438 12.4646 -8.54925 21.743637 -9.4192295c9.279037 -0.86998177 18.686646 0.98405266 25.377213 5.0012913l0 0c3.7516327 -4.5853996 11.118057 -7.6662025 19.485245 -8.149178c8.367203 -0.4829769 16.551025 1.7002239 21.64743 5.774891l0 0c6.777893 -4.86051 17.561676 -6.906988 27.685165 -5.253908c10.123505 1.6530781 17.768402 6.708805 19.62674 12.979536l0 0c8.304077 1.3804054 15.221191 4.88958 18.964172 9.620865c3.7430115 4.731285 3.9447327 10.220551 0.55300903 15.049549l0 0c8.1770935 6.4858704 10.089905 15.128212 5.024658 22.701866c-5.065277 7.5736465 -16.347626 12.9407425 -29.636688 14.098389c-0.093688965 7.108139 -6.4903564 13.630486 -16.724457 17.053032c-10.2341 3.422554 -22.707565 3.2108688 -32.612564 -0.55345917c-4.2190094 8.513229 -16.0941 14.777184 -30.494781 16.085594c-14.400696 1.3084259 -28.745392 -2.5732574 -36.836655 -9.968002c-9.918182 3.6448975 -21.819168 4.69487 -33.018356 2.9130783c-11.199188 -1.781784 -20.75319 -6.2452545 -26.506828 -12.383537l0 0c-10.135139 0.7228012 -19.934418 -2.4773483 -24.534492 -8.012215c-4.600071 -5.534874 -3.0216904 -12.226227 3.9517975 -16.753166l0 0c-9.040806 -3.2428818 -13.653973 -9.677841 -11.43391 -15.949295c2.2200623 -6.2714615 10.770275 -10.958275 21.192043 -11.616463z" fill-rule="nonzero"></path><path stroke="#000000" stroke-width="2.0" stroke-linejoin="round" stroke-linecap="butt" d="m70.711235 87.46233l0 0c4.266388 1.5303268 9.195061 2.2245178 14.124268 1.9893646m6.4562073 22.776573c2.1197433 -0.15117645 4.1974945 -0.47129822 6.1796646 -0.95212555m53.342575 10.422188c-1.4908905 -1.3625565 -2.739151 -2.8185577 -3.7234802 -4.3432007m71.05748 -1.7746506l0 0c0.7691803 -1.5520935 1.2675476 -3.1495285 1.4867859 -4.7656555m47.84836 -11.733322c0.099731445 -7.567711 -6.953247 -14.496788 -18.12944 -17.810982m42.741257 -18.988476c-1.809967 2.5769463 -4.5730286 4.8629265 -8.072632 6.678692m-11.442871 -31.349777l0 0c0.30841064 1.0406303 0.45114136 2.096901 0.4262085 3.154171m-47.737305 -10.879488l0 0c-1.6907501 1.2124557 -3.0837097 2.5673618 -4.135483 4.022524m-36.99759 -1.6487656l0 0c-0.90101624 1.1012611 -1.5738525 2.26659 -2.0029755 3.4691353m-45.11856 0.9488945l0 0c2.6307373 0.9389763 5.064514 2.0691376 7.247879 3.365654m-63.591873 19.518253l0 0c0.2676773 1.198822 0.6906204 2.382866 1.2648773 3.54105" fill-rule="nonzero"></path><path fill="#ffe599" d="m164.22572 181.40158l7.897629 0l0 -38.850403l15.795288 0l0 38.850403l7.897629 0l-15.795273 15.795273z" fill-rule="nonzero"></path><path stroke="#000000" stroke-width="2.0" stroke-linejoin="round" stroke-linecap="butt" d="m164.22572 181.40158l7.897629 0l0 -38.850403l15.795288 0l0 38.850403l7.897629 0l-15.795273 15.795273z" fill-rule="nonzero"></path><path fill="#000000" fill-opacity="0.0" d="m108.8399 49.81365l143.49606 0l0 46.07874l-143.49606 0z" fill-rule="nonzero"></path><path fill="#000000" d="m138.89284 71.968025l1.796875 0.453125q-0.5625 2.21875 -2.03125 3.390625q-1.46875 1.15625 -3.59375 1.15625q-2.203125 0 -3.578125 -0.890625q-1.375 -0.90625 -2.09375 -2.59375q-0.71875 -1.703125 -0.71875 -3.65625q0 -2.125 0.796875 -3.703125q0.8125 -1.578125 2.3125 -2.3906288q1.5 -0.828125 3.296875 -0.828125q2.046875 0 3.4375 1.046875q1.390625 1.0312538 1.9375 2.9062538l-1.765625 0.421875q-0.46875 -1.484375 -1.375 -2.15625q-0.90625 -0.6875 -2.265625 -0.6875q-1.5625 0 -2.625 0.75q-1.046875 0.75 -1.484375 2.03125q-0.421875 1.265625 -0.421875 2.609375q0 1.734375 0.5 3.03125q0.515625 1.28125 1.578125 1.921875q1.078125 0.640625 2.3125 0.640625q1.515625 0 2.5625 -0.859375q1.046875 -0.875 1.421875 -2.59375zm3.5198212 4.765625l0 -13.593754l1.671875 0l0 13.593754l-1.671875 0zm4.191696 -11.6875l0 -1.9062538l1.671875 0l0 1.9062538l-1.671875 0zm0 11.6875l0 -9.859375l1.671875 0l0 9.859375l-1.671875 0zm10.566696 -3.609375l1.640625 0.21875q-0.265625 1.6875 -1.375 2.65625q-1.109375 0.953125 -2.734375 0.953125q-2.015625 0 -3.25 -1.3125q-1.21875 -1.328125 -1.21875 -3.796875q0 -1.59375 0.515625 -2.78125q0.53125 -1.203125 1.609375 -1.796875q1.09375 -0.609375 2.359375 -0.609375q1.609375 0 2.625 0.8125q1.015625 0.8125 1.3125 2.3125l-1.625 0.25q-0.234375 -1.0 -0.828125 -1.5q-0.59375 -0.5 -1.421875 -0.5q-1.265625 0 -2.0625 0.90625q-0.78125 0.90625 -0.78125 2.859375q0 1.984375 0.765625 2.890625q0.765625 0.890625 1.984375 0.890625q0.984375 0 1.640625 -0.59375q0.65625 -0.609375 0.84375 -1.859375zm2.90625 3.609375l0 -13.593754l1.671875 0l0 7.750004l3.953125 -4.015625l2.15625 0l-3.765625 3.65625l4.140625 6.203125l-2.0625 0l-3.25 -5.03125l-1.171875 1.125l0 3.90625l-1.671875 0zm14.105179 -4.375l1.6875 -0.140625q0.125 1.015625 0.5625 1.671875q0.4375 0.65625 1.359375 1.0625q0.9375 0.40625 2.09375 0.40625q1.03125 0 1.8125 -0.3125q0.796875 -0.3125 1.1875 -0.84375q0.390625 -0.53125 0.390625 -1.15625q0 -0.640625 -0.375 -1.109375q-0.375 -0.484375 -1.234375 -0.8125q-0.546875 -0.21875 -2.421875 -0.65625q-1.875 -0.453125 -2.625 -0.859375q-0.96875 -0.515625 -1.453125 -1.265625q-0.46875 -0.75 -0.46875 -1.6875q0 -1.03125 0.578125 -1.921875q0.59375 -0.9062538 1.703125 -1.3593788q1.125 -0.46875 2.5 -0.46875q1.515625 0 2.671875 0.484375q1.15625 0.484375 1.765625 1.4375038q0.625 0.9375 0.671875 2.140625l-1.71875 0.125q-0.140625 -1.28125 -0.953125 -1.9375q-0.796875 -0.671875 -2.359375 -0.671875q-1.625 0 -2.375 0.609375q-0.75 0.59375 -0.75 1.4375q0 0.734375 0.53125 1.203125q0.515625 0.46875 2.703125 0.96875q2.203125 0.5 3.015625 0.875q1.1875 0.546875 1.75 1.390625q0.578125 0.828125 0.578125 1.921875q0 1.09375 -0.625 2.0625q-0.625 0.953125 -1.796875 1.484375q-1.15625 0.53125 -2.609375 0.53125q-1.84375 0 -3.09375 -0.53125q-1.25 -0.546875 -1.96875 -1.625q-0.703125 -1.078125 -0.734375 -2.453125zm16.490448 2.875l0.234375 1.484375q-0.703125 0.140625 -1.265625 0.140625q-0.90625 0 -1.40625 -0.28125q-0.5 -0.296875 -0.703125 -0.75q-0.203125 -0.46875 -0.203125 -1.984375l0 -5.65625l-1.234375 0l0 -1.3125l1.234375 0l0 -2.4375l1.65625 -1.0000038l0 3.4375038l1.6875 0l0 1.3125l-1.6875 0l0 5.75q0 0.71875 0.078125 0.921875q0.09375 0.203125 0.296875 0.328125q0.203125 0.125 0.578125 0.125q0.265625 0 0.734375 -0.078125zm1.5114288 1.5l0 -9.859375l1.5 0l0 1.5q0.578125 -1.046875 1.0625 -1.375q0.484375 -0.34375 1.078125 -0.34375q0.84375 0 1.71875 0.546875l-0.578125 1.546875q-0.609375 -0.359375 -1.234375 -0.359375q-0.546875 0 -0.984375 0.328125q-0.421875 0.328125 -0.609375 0.90625q-0.28125 0.890625 -0.28125 1.953125l0 5.15625l-1.671875 0zm12.978302 -3.171875l1.71875 0.21875q-0.40625 1.5 -1.515625 2.34375q-1.09375 0.828125 -2.8125 0.828125q-2.15625 0 -3.421875 -1.328125q-1.265625 -1.328125 -1.265625 -3.734375q0 -2.484375 1.265625 -3.859375q1.28125 -1.375 3.328125 -1.375q1.984375 0 3.234375 1.34375q1.25 1.34375 1.25 3.796875q0 0.140625 -0.015625 0.4375l-7.34375 0q0.09375 1.625 0.921875 2.484375q0.828125 0.859375 2.0625 0.859375q0.90625 0 1.546875 -0.46875q0.65625 -0.484375 1.046875 -1.546875zm-5.484375 -2.703125l5.5 0q-0.109375 -1.234375 -0.625 -1.859375q-0.796875 -0.96875 -2.078125 -0.96875q-1.140625 0 -1.9375 0.78125q-0.78125 0.765625 -0.859375 2.046875zm15.547592 4.65625q-0.9375 0.796875 -1.796875 1.125q-0.859375 0.3125 -1.84375 0.3125q-1.609375 0 -2.484375 -0.78125q-0.875 -0.796875 -0.875 -2.03125q0 -0.734375 0.328125 -1.328125q0.328125 -0.59375 0.859375 -0.953125q0.53125 -0.359375 1.203125 -0.546875q0.5 -0.140625 1.484375 -0.25q2.03125 -0.25 2.984375 -0.578125q0 -0.34375 0 -0.4375q0 -1.015625 -0.46875 -1.4375q-0.640625 -0.5625 -1.90625 -0.5625q-1.171875 0 -1.734375 0.40625q-0.5625 0.40625 -0.828125 1.46875l-1.640625 -0.234375q0.234375 -1.046875 0.734375 -1.6875q0.515625 -0.640625 1.46875 -0.984375q0.96875 -0.359375 2.25 -0.359375q1.265625 0 2.046875 0.296875q0.78125 0.296875 1.15625 0.75q0.375 0.453125 0.515625 1.140625q0.09375 0.421875 0.09375 1.53125l0 2.234375q0 2.328125 0.09375 2.953125q0.109375 0.609375 0.4375 1.171875l-1.75 0q-0.265625 -0.515625 -0.328125 -1.21875zm-0.140625 -3.71875q-0.90625 0.359375 -2.734375 0.625q-1.03125 0.140625 -1.453125 0.328125q-0.421875 0.1875 -0.65625 0.546875q-0.234375 0.359375 -0.234375 0.796875q0 0.671875 0.5 1.125q0.515625 0.4375 1.484375 0.4375q0.96875 0 1.71875 -0.421875q0.75 -0.4375 1.109375 -1.15625q0.265625 -0.578125 0.265625 -1.671875l0 -0.609375zm4.078842 4.9375l0 -9.859375l1.5 0l0 1.390625q0.453125 -0.71875 1.21875 -1.15625q0.78125 -0.453125 1.765625 -0.453125q1.09375 0 1.796875 0.453125q0.703125 0.453125 0.984375 1.28125q1.171875 -1.734375 3.046875 -1.734375q1.46875 0 2.25 0.8125q0.796875 0.8125 0.796875 2.5l0 6.765625l-1.671875 0l0 -6.203125q0 -1.0 -0.15625 -1.4375q-0.15625 -0.453125 -0.59375 -0.71875q-0.421875 -0.265625 -1.0 -0.265625q-1.03125 0 -1.71875 0.6875q-0.6875 0.6875 -0.6875 2.21875l0 5.71875l-1.671875 0l0 -6.40625q0 -1.109375 -0.40625 -1.65625q-0.40625 -0.5625 -1.34375 -0.5625q-0.703125 0 -1.3125 0.375q-0.59375 0.359375 -0.859375 1.078125q-0.265625 0.71875 -0.265625 2.0625l0 5.109375l-1.671875 0z" fill-rule="nonzero"></path><path fill="#b6d7a8" d="m421.17322 239.75357l0 0c0 -7.8771057 6.3856506 -14.262756 14.262756 -14.262756l57.049316 0l0 0c3.7827148 0 7.410492 1.5026855 10.085266 4.1774597c2.6748047 2.6747894 4.1774597 6.302582 4.1774597 10.085297l0 219.94693c0 7.8771057 -6.3856506 14.262756 -14.262726 14.262756l-57.049316 0c-7.8771057 0 -14.262756 -6.3856506 -14.262756 -14.262756z" fill-rule="nonzero"></path><path stroke="#000000" stroke-width="2.0" stroke-linejoin="round" stroke-linecap="butt" d="m421.17322 239.75357l0 0c0 -7.8771057 6.3856506 -14.262756 14.262756 -14.262756l57.049316 0l0 0c3.7827148 0 7.410492 1.5026855 10.085266 4.1774597c2.6748047 2.6747894 4.1774597 6.302582 4.1774597 10.085297l0 219.94693c0 7.8771057 -6.3856506 14.262756 -14.262726 14.262756l-57.049316 0c-7.8771057 0 -14.262756 -6.3856506 -14.262756 -14.262756z" fill-rule="nonzero"></path><path fill="#ffe599" d="m350.02625 429.10236l34.236237 0l0 -9.212585l18.42517 18.425201l-18.42517 18.42517l0 -9.212585l-34.236237 0z" fill-rule="nonzero"></path><path stroke="#000000" stroke-width="2.0" stroke-linejoin="round" stroke-linecap="butt" d="m350.02625 429.10236l34.236237 0l0 -9.212585l18.42517 18.425201l-18.42517 18.42517l0 -9.212585l-34.236237 0z" fill-rule="nonzero"></path><path fill="#000000" fill-opacity="0.0" d="m354.72046 476.19684l214.55121 0l0 54.64569l-214.55121 0z" fill-rule="nonzero"></path><path fill="#000000" d="m421.50583 503.11685l0 -13.59375l6.03125 0q1.8125 0 2.75 0.359375q0.953125 0.359375 1.515625 1.296875q0.5625 0.921875 0.5625 2.046875q0 1.453125 -0.9375 2.453125q-0.921875 0.984375 -2.890625 1.25q0.71875 0.34375 1.09375 0.671875q0.78125 0.734375 1.484375 1.8125l2.375 3.703125l-2.265625 0l-1.796875 -2.828125q-0.796875 -1.21875 -1.3125 -1.875q-0.5 -0.65625 -0.90625 -0.90625q-0.40625 -0.265625 -0.8125 -0.359375q-0.3125 -0.078125 -1.015625 -0.078125l-2.078125 0l0 6.046875l-1.796875 0zm1.796875 -7.59375l3.859375 0q1.234375 0 1.921875 -0.25q0.703125 -0.265625 1.0625 -0.828125q0.375 -0.5625 0.375 -1.21875q0 -0.96875 -0.703125 -1.578125q-0.703125 -0.625 -2.21875 -0.625l-4.296875 0l0 4.5zm17.863556 6.375q-0.9375 0.796875 -1.796875 1.125q-0.859375 0.3125 -1.84375 0.3125q-1.609375 0 -2.484375 -0.78125q-0.875 -0.796875 -0.875 -2.03125q0 -0.734375 0.328125 -1.328125q0.328125 -0.59375 0.859375 -0.953125q0.53125 -0.359375 1.203125 -0.546875q0.5 -0.140625 1.484375 -0.25q2.03125 -0.25 2.984375 -0.578125q0 -0.34375 0 -0.4375q0 -1.015625 -0.46875 -1.4375q-0.640625 -0.5625 -1.90625 -0.5625q-1.171875 0 -1.734375 0.40625q-0.5625 0.40625 -0.828125 1.46875l-1.640625 -0.234375q0.234375 -1.046875 0.734375 -1.6875q0.515625 -0.640625 1.46875 -0.984375q0.96875 -0.359375 2.25 -0.359375q1.265625 0 2.046875 0.296875q0.78125 0.296875 1.15625 0.75q0.375 0.453125 0.515625 1.140625q0.09375 0.421875 0.09375 1.53125l0 2.234375q0 2.328125 0.09375 2.953125q0.109375 0.609375 0.4375 1.171875l-1.75 0q-0.265625 -0.515625 -0.328125 -1.21875zm-0.140625 -3.71875q-0.90625 0.359375 -2.734375 0.625q-1.03125 0.140625 -1.453125 0.328125q-0.421875 0.1875 -0.65625 0.546875q-0.234375 0.359375 -0.234375 0.796875q0 0.671875 0.5 1.125q0.515625 0.4375 1.484375 0.4375q0.96875 0 1.71875 -0.421875q0.75 -0.4375 1.109375 -1.15625q0.265625 -0.578125 0.265625 -1.671875l0 -0.609375zm5.6257324 4.9375l-1.546875 0l0 -13.59375l1.65625 0l0 4.84375q1.0625 -1.328125 2.703125 -1.328125q0.90625 0 1.71875 0.375q0.8125 0.359375 1.328125 1.03125q0.53125 0.65625 0.828125 1.59375q0.296875 0.9375 0.296875 2.0q0 2.53125 -1.25 3.921875q-1.25 1.375 -3.0 1.375q-1.75 0 -2.734375 -1.453125l0 1.234375zm-0.015625 -5.0q0 1.765625 0.46875 2.5625q0.796875 1.28125 2.140625 1.28125q1.09375 0 1.890625 -0.9375q0.796875 -0.953125 0.796875 -2.84375q0 -1.921875 -0.765625 -2.84375q-0.765625 -0.921875 -1.84375 -0.921875q-1.09375 0 -1.890625 0.953125q-0.796875 0.953125 -0.796875 2.75zm10.391327 5.0l-1.546875 0l0 -13.59375l1.65625 0l0 4.84375q1.0625 -1.328125 2.703125 -1.328125q0.90625 0 1.71875 0.375q0.8125 0.359375 1.328125 1.03125q0.53125 0.65625 0.828125 1.59375q0.296875 0.9375 0.296875 2.0q0 2.53125 -1.25 3.921875q-1.25 1.375 -3.0 1.375q-1.75 0 -2.734375 -1.453125l0 1.234375zm-0.015625 -5.0q0 1.765625 0.46875 2.5625q0.796875 1.28125 2.140625 1.28125q1.09375 0 1.890625 -0.9375q0.796875 -0.953125 0.796875 -2.84375q0 -1.921875 -0.765625 -2.84375q-0.765625 -0.921875 -1.84375 -0.921875q-1.09375 0 -1.890625 0.953125q-0.796875 0.953125 -0.796875 2.75zm8.860107 -6.6875l0 -1.90625l1.671875 0l0 1.90625l-1.671875 0zm0 11.6875l0 -9.859375l1.671875 0l0 9.859375l-1.671875 0zm7.785431 -1.5l0.234375 1.484375q-0.703125 0.140625 -1.265625 0.140625q-0.90625 0 -1.40625 -0.28125q-0.5 -0.296875 -0.703125 -0.75q-0.203125 -0.46875 -0.203125 -1.984375l0 -5.65625l-1.234375 0l0 -1.3125l1.234375 0l0 -2.4375l1.65625 -1.0l0 3.4375l1.6875 0l0 1.3125l-1.6875 0l0 5.75q0 0.71875 0.078125 0.921875q0.09375 0.203125 0.296875 0.328125q0.203125 0.125 0.578125 0.125q0.265625 0 0.734375 -0.078125zm1.6833191 1.5l0 -13.59375l2.71875 0l3.21875 9.625q0.4375 1.34375 0.640625 2.015625q0.234375 -0.75 0.734375 -2.1875l3.25 -9.453125l2.421875 0l0 13.59375l-1.734375 0l0 -11.390625l-3.953125 11.390625l-1.625 0l-3.9375 -11.578125l0 11.578125l-1.734375 0zm25.900177 -1.453125q1.265625 0.859375 2.3125 1.265625l-0.53125 1.25q-1.453125 -0.53125 -2.921875 -1.671875q-1.5 0.84375 -3.328125 0.84375q-1.84375 0 -3.359375 -0.890625q-1.5 -0.890625 -2.3125 -2.5q-0.8125 -1.625 -0.8125 -3.640625q0 -2.015625 0.8125 -3.65625q0.828125 -1.65625 2.328125 -2.515625q1.515625 -0.875 3.375 -0.875q1.890625 0 3.390625 0.90625q1.515625 0.890625 2.3125 2.5q0.796875 1.609375 0.796875 3.625q0 1.6875 -0.515625 3.03125q-0.515625 1.328125 -1.546875 2.328125zm-3.953125 -2.296875q1.5625 0.421875 2.5625 1.296875q1.59375 -1.453125 1.59375 -4.359375q0 -1.65625 -0.5625 -2.875q-0.5625 -1.234375 -1.640625 -1.921875q-1.078125 -0.6875 -2.421875 -0.6875q-2.015625 0 -3.34375 1.390625q-1.328125 1.375 -1.328125 4.109375q0 2.65625 1.3125 4.078125q1.3125 1.40625 3.359375 1.40625q0.953125 0 1.8125 -0.359375q-0.84375 -0.546875 -1.78125 -0.78125l0.4375 -1.296875z" fill-rule="nonzero"></path><path fill="#ea9999" d="m587.6562 254.09492l0 0c0 -9.925415 19.156555 -17.971573 42.787354 -17.971573c23.63086 0 42.787415 8.046158 42.787415 17.971573l0 71.88628c0 9.925415 -19.156555 17.971558 -42.787415 17.971558c-23.630798 0 -42.787354 -8.046143 -42.787354 -17.971558z" fill-rule="nonzero"></path><path fill="#000000" fill-opacity="0.0" d="m673.23096 254.09492l0 0c0 9.92543 -19.156555 17.971573 -42.787415 17.971573c-23.630798 0 -42.787354 -8.046143 -42.787354 -17.971573" fill-rule="nonzero"></path><path fill="#000000" fill-opacity="0.0" d="m587.6562 254.09492l0 0c0 -9.925415 19.156555 -17.971573 42.787354 -17.971573c23.63086 0 42.787415 8.046158 42.787415 17.971573l0 71.88628c0 9.925415 -19.156555 17.971558 -42.787415 17.971558c-23.630798 0 -42.787354 -8.046143 -42.787354 -17.971558z" fill-rule="nonzero"></path><path stroke="#000000" stroke-width="2.0" stroke-linejoin="round" stroke-linecap="butt" d="m673.23096 254.09492l0 0c0 9.92543 -19.156555 17.971573 -42.787415 17.971573c-23.630798 0 -42.787354 -8.046143 -42.787354 -17.971573" fill-rule="nonzero"></path><path stroke="#000000" stroke-width="2.0" stroke-linejoin="round" stroke-linecap="butt" d="m587.6562 254.09492l0 0c0 -9.925415 19.156555 -17.971573 42.787354 -17.971573c23.63086 0 42.787415 8.046158 42.787415 17.971573l0 71.88628c0 9.925415 -19.156555 17.971558 -42.787415 17.971558c-23.630798 0 -42.787354 -8.046143 -42.787354 -17.971558z" fill-rule="nonzero"></path><path fill="#ea9999" d="m587.6562 374.09494l0 0c0 -9.925446 19.156555 -17.971588 42.787354 -17.971588c23.63086 0 42.787415 8.046143 42.787415 17.971588l0 71.88626c0 9.925415 -19.156555 17.971558 -42.787415 17.971558c-23.630798 0 -42.787354 -8.046143 -42.787354 -17.971558z" fill-rule="nonzero"></path><path fill="#000000" fill-opacity="0.0" d="m673.23096 374.09494l0 0c0 9.925415 -19.156555 17.971558 -42.787415 17.971558c-23.630798 0 -42.787354 -8.046143 -42.787354 -17.971558" fill-rule="nonzero"></path><path fill="#000000" fill-opacity="0.0" d="m587.6562 374.09494l0 0c0 -9.925446 19.156555 -17.971588 42.787354 -17.971588c23.63086 0 42.787415 8.046143 42.787415 17.971588l0 71.88626c0 9.925415 -19.156555 17.971558 -42.787415 17.971558c-23.630798 0 -42.787354 -8.046143 -42.787354 -17.971558z" fill-rule="nonzero"></path><path stroke="#000000" stroke-width="2.0" stroke-linejoin="round" stroke-linecap="butt" d="m673.23096 374.09494l0 0c0 9.925415 -19.156555 17.971558 -42.787415 17.971558c-23.630798 0 -42.787354 -8.046143 -42.787354 -17.971558" fill-rule="nonzero"></path><path stroke="#000000" stroke-width="2.0" stroke-linejoin="round" stroke-linecap="butt" d="m587.6562 374.09494l0 0c0 -9.925446 19.156555 -17.971588 42.787354 -17.971588c23.63086 0 42.787415 8.046143 42.787415 17.971588l0 71.88626c0 9.925415 -19.156555 17.971558 -42.787415 17.971558c-23.630798 0 -42.787354 -8.046143 -42.787354 -17.971558z" fill-rule="nonzero"></path><path fill="#ffe599" d="m521.97504 403.68372l34.236267 0l0 -9.212585l18.42517 18.42517l-18.42517 18.425201l0 -9.212585l-34.236267 0z" fill-rule="nonzero"></path><path stroke="#000000" stroke-width="2.0" stroke-linejoin="round" stroke-linecap="butt" d="m521.97504 403.68372l34.236267 0l0 -9.212585l18.42517 18.42517l-18.42517 18.425201l0 -9.212585l-34.236267 0z" fill-rule="nonzero"></path><path fill="#ffe599" d="m521.97504 283.68372l34.236267 0l0 -9.212585l18.42517 18.42517l-18.42517 18.425201l0 -9.212585l-34.236267 0z" fill-rule="nonzero"></path><path stroke="#000000" stroke-width="2.0" stroke-linejoin="round" stroke-linecap="butt" d="m521.97504 283.68372l34.236267 0l0 -9.212585l18.42517 18.42517l-18.42517 18.425201l0 -9.212585l-34.236267 0z" fill-rule="nonzero"></path><path fill="#000000" fill-opacity="0.0" d="m530.72046 476.19684l214.55121 0l0 54.64569l-214.55121 0z" fill-rule="nonzero"></path><path fill="#000000" d="m579.8744 503.11685l0 -13.59375l9.84375 0l0 1.59375l-8.046875 0l0 4.171875l7.53125 0l0 1.59375l-7.53125 0l0 4.625l8.359375 0l0 1.609375l-10.15625 0zm12.1623535 0l0 -13.59375l1.671875 0l0 13.59375l-1.671875 0zm10.613525 -1.21875q-0.9375 0.796875 -1.796875 1.125q-0.859375 0.3125 -1.84375 0.3125q-1.609375 0 -2.484375 -0.78125q-0.875 -0.796875 -0.875 -2.03125q0 -0.734375 0.328125 -1.328125q0.328125 -0.59375 0.859375 -0.953125q0.53125 -0.359375 1.203125 -0.546875q0.5 -0.140625 1.484375 -0.25q2.03125 -0.25 2.984375 -0.578125q0 -0.34375 0 -0.4375q0 -1.015625 -0.46875 -1.4375q-0.640625 -0.5625 -1.90625 -0.5625q-1.171875 0 -1.734375 0.40625q-0.5625 0.40625 -0.828125 1.46875l-1.640625 -0.234375q0.234375 -1.046875 0.734375 -1.6875q0.515625 -0.640625 1.46875 -0.984375q0.96875 -0.359375 2.25 -0.359375q1.265625 0 2.046875 0.296875q0.78125 0.296875 1.15625 0.75q0.375 0.453125 0.515625 1.140625q0.09375 0.421875 0.09375 1.53125l0 2.234375q0 2.328125 0.09375 2.953125q0.109375 0.609375 0.4375 1.171875l-1.75 0q-0.265625 -0.515625 -0.328125 -1.21875zm-0.140625 -3.71875q-0.90625 0.359375 -2.734375 0.625q-1.03125 0.140625 -1.453125 0.328125q-0.421875 0.1875 -0.65625 0.546875q-0.234375 0.359375 -0.234375 0.796875q0 0.671875 0.5 1.125q0.515625 0.4375 1.484375 0.4375q0.96875 0 1.71875 -0.421875q0.75 -0.4375 1.109375 -1.15625q0.265625 -0.578125 0.265625 -1.671875l0 -0.609375zm3.4069824 2.0l1.65625 -0.265625q0.140625 1.0 0.765625 1.53125q0.640625 0.515625 1.78125 0.515625q1.15625 0 1.703125 -0.46875q0.5625 -0.46875 0.5625 -1.09375q0 -0.5625 -0.484375 -0.890625q-0.34375 -0.21875 -1.703125 -0.5625q-1.84375 -0.46875 -2.5625 -0.796875q-0.703125 -0.34375 -1.078125 -0.9375q-0.359375 -0.609375 -0.359375 -1.328125q0 -0.65625 0.296875 -1.21875q0.3125 -0.5625 0.828125 -0.9375q0.390625 -0.28125 1.0625 -0.484375q0.671875 -0.203125 1.4375 -0.203125q1.171875 0 2.046875 0.34375q0.875 0.328125 1.28125 0.90625q0.421875 0.5625 0.578125 1.515625l-1.625 0.21875q-0.109375 -0.75 -0.65625 -1.171875q-0.53125 -0.4375 -1.5 -0.4375q-1.15625 0 -1.640625 0.390625q-0.484375 0.375 -0.484375 0.875q0 0.328125 0.203125 0.59375q0.203125 0.265625 0.640625 0.4375q0.25 0.09375 1.46875 0.4375q1.765625 0.46875 2.46875 0.765625q0.703125 0.296875 1.09375 0.875q0.40625 0.578125 0.40625 1.4375q0 0.828125 -0.484375 1.578125q-0.484375 0.734375 -1.40625 1.140625q-0.921875 0.390625 -2.078125 0.390625q-1.921875 0 -2.9375 -0.796875q-1.0 -0.796875 -1.28125 -2.359375zm13.65625 1.4375l0.234375 1.484375q-0.703125 0.140625 -1.265625 0.140625q-0.90625 0 -1.40625 -0.28125q-0.5 -0.296875 -0.703125 -0.75q-0.203125 -0.46875 -0.203125 -1.984375l0 -5.65625l-1.234375 0l0 -1.3125l1.234375 0l0 -2.4375l1.65625 -1.0l0 3.4375l1.6875 0l0 1.3125l-1.6875 0l0 5.75q0 0.71875 0.078125 0.921875q0.09375 0.203125 0.296875 0.328125q0.203125 0.125 0.578125 0.125q0.265625 0 0.734375 -0.078125zm1.5426636 -10.1875l0 -1.90625l1.671875 0l0 1.90625l-1.671875 0zm0 11.6875l0 -9.859375l1.671875 0l0 9.859375l-1.671875 0zm10.566711 -3.609375l1.640625 0.21875q-0.265625 1.6875 -1.375 2.65625q-1.109375 0.953125 -2.734375 0.953125q-2.015625 0 -3.25 -1.3125q-1.21875 -1.328125 -1.21875 -3.796875q0 -1.59375 0.515625 -2.78125q0.53125 -1.203125 1.609375 -1.796875q1.09375 -0.609375 2.359375 -0.609375q1.609375 0 2.625 0.8125q1.015625 0.8125 1.3125 2.3125l-1.625 0.25q-0.234375 -1.0 -0.828125 -1.5q-0.59375 -0.5 -1.421875 -0.5q-1.265625 0 -2.0625 0.90625q-0.78125 0.90625 -0.78125 2.859375q0 1.984375 0.765625 2.890625q0.765625 0.890625 1.984375 0.890625q0.984375 0 1.640625 -0.59375q0.65625 -0.609375 0.84375 -1.859375zm7.6832886 -0.765625l1.6875 -0.140625q0.125 1.015625 0.5625 1.671875q0.4375 0.65625 1.359375 1.0625q0.9375 0.40625 2.09375 0.40625q1.03125 0 1.8125 -0.3125q0.796875 -0.3125 1.1875 -0.84375q0.390625 -0.53125 0.390625 -1.15625q0 -0.640625 -0.375 -1.109375q-0.375 -0.484375 -1.234375 -0.8125q-0.546875 -0.21875 -2.421875 -0.65625q-1.875 -0.453125 -2.625 -0.859375q-0.96875 -0.515625 -1.453125 -1.265625q-0.46875 -0.75 -0.46875 -1.6875q0 -1.03125 0.578125 -1.921875q0.59375 -0.90625 1.703125 -1.359375q1.125 -0.46875 2.5 -0.46875q1.515625 0 2.671875 0.484375q1.15625 0.484375 1.765625 1.4375q0.625 0.9375 0.671875 2.140625l-1.71875 0.125q-0.140625 -1.28125 -0.953125 -1.9375q-0.796875 -0.671875 -2.359375 -0.671875q-1.625 0 -2.375 0.609375q-0.75 0.59375 -0.75 1.4375q0 0.734375 0.53125 1.203125q0.515625 0.46875 2.703125 0.96875q2.203125 0.5 3.015625 0.875q1.1875 0.546875 1.75 1.390625q0.578125 0.828125 0.578125 1.921875q0 1.09375 -0.625 2.0625q-0.625 0.953125 -1.796875 1.484375q-1.15625 0.53125 -2.609375 0.53125q-1.84375 0 -3.09375 -0.53125q-1.25 -0.546875 -1.96875 -1.625q-0.703125 -1.078125 -0.734375 -2.453125zm19.584229 1.203125l1.71875 0.21875q-0.40625 1.5 -1.515625 2.34375q-1.09375 0.828125 -2.8125 0.828125q-2.15625 0 -3.421875 -1.328125q-1.265625 -1.328125 -1.265625 -3.734375q0 -2.484375 1.265625 -3.859375q1.28125 -1.375 3.328125 -1.375q1.984375 0 3.234375 1.34375q1.25 1.34375 1.25 3.796875q0 0.140625 -0.015625 0.4375l-7.34375 0q0.09375 1.625 0.921875 2.484375q0.828125 0.859375 2.0625 0.859375q0.90625 0 1.546875 -0.46875q0.65625 -0.484375 1.046875 -1.546875zm-5.484375 -2.703125l5.5 0q-0.109375 -1.234375 -0.625 -1.859375q-0.796875 -0.96875 -2.078125 -0.96875q-1.140625 0 -1.9375 0.78125q-0.78125 0.765625 -0.859375 2.046875zm15.547607 4.65625q-0.9375 0.796875 -1.796875 1.125q-0.859375 0.3125 -1.84375 0.3125q-1.609375 0 -2.484375 -0.78125q-0.875 -0.796875 -0.875 -2.03125q0 -0.734375 0.328125 -1.328125q0.328125 -0.59375 0.859375 -0.953125q0.53125 -0.359375 1.203125 -0.546875q0.5 -0.140625 1.484375 -0.25q2.03125 -0.25 2.984375 -0.578125q0 -0.34375 0 -0.4375q0 -1.015625 -0.46875 -1.4375q-0.640625 -0.5625 -1.90625 -0.5625q-1.171875 0 -1.734375 0.40625q-0.5625 0.40625 -0.828125 1.46875l-1.640625 -0.234375q0.234375 -1.046875 0.734375 -1.6875q0.515625 -0.640625 1.46875 -0.984375q0.96875 -0.359375 2.25 -0.359375q1.265625 0 2.046875 0.296875q0.78125 0.296875 1.15625 0.75q0.375 0.453125 0.515625 1.140625q0.09375 0.421875 0.09375 1.53125l0 2.234375q0 2.328125 0.09375 2.953125q0.109375 0.609375 0.4375 1.171875l-1.75 0q-0.265625 -0.515625 -0.328125 -1.21875zm-0.140625 -3.71875q-0.90625 0.359375 -2.734375 0.625q-1.03125 0.140625 -1.453125 0.328125q-0.421875 0.1875 -0.65625 0.546875q-0.234375 0.359375 -0.234375 0.796875q0 0.671875 0.5 1.125q0.515625 0.4375 1.484375 0.4375q0.96875 0 1.71875 -0.421875q0.75 -0.4375 1.109375 -1.15625q0.265625 -0.578125 0.265625 -1.671875l0 -0.609375zm4.0631714 4.9375l0 -9.859375l1.5 0l0 1.5q0.578125 -1.046875 1.0625 -1.375q0.484375 -0.34375 1.078125 -0.34375q0.84375 0 1.71875 0.546875l-0.578125 1.546875q-0.609375 -0.359375 -1.234375 -0.359375q-0.546875 0 -0.984375 0.328125q-0.421875 0.328125 -0.609375 0.90625q-0.28125 0.890625 -0.28125 1.953125l0 5.15625l-1.671875 0zm12.6658325 -3.609375l1.640625 0.21875q-0.265625 1.6875 -1.375 2.65625q-1.109375 0.953125 -2.734375 0.953125q-2.015625 0 -3.25 -1.3125q-1.21875 -1.328125 -1.21875 -3.796875q0 -1.59375 0.515625 -2.78125q0.53125 -1.203125 1.609375 -1.796875q1.09375 -0.609375 2.359375 -0.609375q1.609375 0 2.625 0.8125q1.015625 0.8125 1.3125 2.3125l-1.625 0.25q-0.234375 -1.0 -0.828125 -1.5q-0.59375 -0.5 -1.421875 -0.5q-1.265625 0 -2.0625 0.90625q-0.78125 0.90625 -0.78125 2.859375q0 1.984375 0.765625 2.890625q0.765625 0.890625 1.984375 0.890625q0.984375 0 1.640625 -0.59375q0.65625 -0.609375 0.84375 -1.859375zm2.890625 3.609375l0 -13.59375l1.671875 0l0 4.875q1.171875 -1.359375 2.953125 -1.359375q1.09375 0 1.890625 0.4375q0.8125 0.421875 1.15625 1.1875q0.359375 0.765625 0.359375 2.203125l0 6.25l-1.671875 0l0 -6.25q0 -1.25 -0.546875 -1.8125q-0.546875 -0.578125 -1.53125 -0.578125q-0.75 0 -1.40625 0.390625q-0.640625 0.375 -0.921875 1.046875q-0.28125 0.65625 -0.28125 1.8125l0 5.390625l-1.671875 0z" fill-rule="nonzero"></path><path fill="#cfe2f3" d="m763.43567 163.00029l0 0c0 -7.8771057 6.385681 -14.262756 14.262756 -14.262756l57.049316 0l0 0c3.7827148 0 7.4105225 1.5026703 10.085266 4.1774597c2.6748047 2.6747894 4.17749 6.302582 4.17749 10.085297l0 79.31702c0 7.8770905 -6.385681 14.262741 -14.262756 14.262741l-57.049316 0c-7.877075 0 -14.262756 -6.3856506 -14.262756 -14.262741z" fill-rule="nonzero"></path><path stroke="#000000" stroke-width="2.0" stroke-linejoin="round" stroke-linecap="butt" d="m763.43567 163.00029l0 0c0 -7.8771057 6.385681 -14.262756 14.262756 -14.262756l57.049316 0l0 0c3.7827148 0 7.4105225 1.5026703 10.085266 4.1774597c2.6748047 2.6747894 4.17749 6.302582 4.17749 10.085297l0 79.31702c0 7.8770905 -6.385681 14.262741 -14.262756 14.262741l-57.049316 0c-7.877075 0 -14.262756 -6.3856506 -14.262756 -14.262741z" fill-rule="nonzero"></path><path fill="#cfe2f3" d="m763.43567 299.00027l0 0c0 -7.877075 6.385681 -14.262756 14.262756 -14.262756l57.049316 0l0 0c3.7827148 0 7.4105225 1.5026855 10.085266 4.17749c2.6748047 2.6747742 4.17749 6.3025513 4.17749 10.085266l0 79.31702c0 7.8771057 -6.385681 14.262756 -14.262756 14.262756l-57.049316 0c-7.877075 0 -14.262756 -6.3856506 -14.262756 -14.262756z" fill-rule="nonzero"></path><path stroke="#000000" stroke-width="2.0" stroke-linejoin="round" stroke-linecap="butt" d="m763.43567 299.00027l0 0c0 -7.877075 6.385681 -14.262756 14.262756 -14.262756l57.049316 0l0 0c3.7827148 0 7.4105225 1.5026855 10.085266 4.17749c2.6748047 2.6747742 4.17749 6.3025513 4.17749 10.085266l0 79.31702c0 7.8771057 -6.385681 14.262756 -14.262756 14.262756l-57.049316 0c-7.877075 0 -14.262756 -6.3856506 -14.262756 -14.262756z" fill-rule="nonzero"></path><path fill="#cfe2f3" d="m763.43567 435.00027l0 0c0 -7.877075 6.385681 -14.262756 14.262756 -14.262756l57.049316 0l0 0c3.7827148 0 7.4105225 1.5026855 10.085266 4.17749c2.6748047 2.6747742 4.17749 6.3025513 4.17749 10.085266l0 79.31705c0 7.877075 -6.385681 14.262756 -14.262756 14.262756l-57.049316 0c-7.877075 0 -14.262756 -6.385681 -14.262756 -14.262756z" fill-rule="nonzero"></path><path stroke="#000000" stroke-width="2.0" stroke-linejoin="round" stroke-linecap="butt" d="m763.43567 435.00027l0 0c0 -7.877075 6.385681 -14.262756 14.262756 -14.262756l57.049316 0l0 0c3.7827148 0 7.4105225 1.5026855 10.085266 4.17749c2.6748047 2.6747742 4.17749 6.3025513 4.17749 10.085266l0 79.31705c0 7.877075 -6.385681 14.262756 -14.262756 14.262756l-57.049316 0c-7.877075 0 -14.262756 -6.385681 -14.262756 -14.262756z" fill-rule="nonzero"></path><path fill="#ffe599" d="m674.93964 344.8609l18.42517 -18.425201l0 9.212585l39.496094 0l0 -9.212585l18.42517 18.425201l-18.42517 18.425201l0 -9.212616l-39.496094 0l0 9.212616z" fill-rule="nonzero"></path><path stroke="#000000" stroke-width="2.0" stroke-linejoin="round" stroke-linecap="butt" d="m674.93964 344.8609l18.42517 -18.425201l0 9.212585l39.496094 0l0 -9.212585l18.42517 18.425201l-18.42517 18.425201l0 -9.212616l-39.496094 0l0 9.212616z" fill-rule="nonzero"></path><path fill="#000000" fill-opacity="0.0" d="m698.72046 548.19684l214.55121 0l0 54.64569l-214.55121 0z" fill-rule="nonzero"></path><path fill="#000000" d="m752.56946 575.1168l5.234375 -13.59375l1.9375 0l5.5625 13.59375l-2.046875 0l-1.59375 -4.125l-5.6875 0l-1.484375 4.125l-1.921875 0zm3.921875 -5.578125l4.609375 0l-1.40625 -3.78125q-0.65625 -1.703125 -0.96875 -2.8125q-0.265625 1.3125 -0.734375 2.59375l-1.5 4.0zm10.0217285 5.578125l0 -13.59375l5.125 0q1.359375 0 2.078125 0.125q1.0 0.171875 1.671875 0.640625q0.671875 0.46875 1.078125 1.3125q0.421875 0.84375 0.421875 1.84375q0 1.734375 -1.109375 2.9375q-1.09375 1.203125 -3.984375 1.203125l-3.484375 0l0 5.53125l-1.796875 0zm1.796875 -7.140625l3.515625 0q1.75 0 2.46875 -0.640625q0.734375 -0.65625 0.734375 -1.828125q0 -0.859375 -0.4375 -1.46875q-0.421875 -0.609375 -1.125 -0.796875q-0.453125 -0.125 -1.671875 -0.125l-3.484375 0l0 4.859375zm10.9435425 7.140625l0 -13.59375l1.8125 0l0 13.59375l-1.8125 0zm9.460388 -4.375l1.6875 -0.140625q0.125 1.015625 0.5625 1.671875q0.4375 0.65625 1.359375 1.0625q0.9375 0.40625 2.09375 0.40625q1.03125 0 1.8125 -0.3125q0.796875 -0.3125 1.1875 -0.84375q0.390625 -0.53125 0.390625 -1.15625q0 -0.640625 -0.375 -1.109375q-0.375 -0.484375 -1.234375 -0.8125q-0.546875 -0.21875 -2.421875 -0.65625q-1.875 -0.453125 -2.625 -0.859375q-0.96875 -0.515625 -1.453125 -1.265625q-0.46875 -0.75 -0.46875 -1.6875q0 -1.03125 0.578125 -1.921875q0.59375 -0.90625 1.703125 -1.359375q1.125 -0.46875 2.5 -0.46875q1.515625 0 2.671875 0.484375q1.15625 0.484375 1.765625 1.4375q0.625 0.9375 0.671875 2.140625l-1.71875 0.125q-0.140625 -1.28125 -0.953125 -1.9375q-0.796875 -0.671875 -2.359375 -0.671875q-1.625 0 -2.375 0.609375q-0.75 0.59375 -0.75 1.4375q0 0.734375 0.53125 1.203125q0.515625 0.46875 2.703125 0.96875q2.203125 0.5 3.015625 0.875q1.1875 0.546875 1.75 1.390625q0.578125 0.828125 0.578125 1.921875q0 1.09375 -0.625 2.0625q-0.625 0.953125 -1.796875 1.484375q-1.15625 0.53125 -2.609375 0.53125q-1.84375 0 -3.09375 -0.53125q-1.25 -0.546875 -1.96875 -1.625q-0.703125 -1.078125 -0.734375 -2.453125zm19.584167 1.203125l1.71875 0.21875q-0.40625 1.5 -1.515625 2.34375q-1.09375 0.828125 -2.8125 0.828125q-2.15625 0 -3.421875 -1.328125q-1.265625 -1.328125 -1.265625 -3.734375q0 -2.484375 1.265625 -3.859375q1.28125 -1.375 3.328125 -1.375q1.984375 0 3.234375 1.34375q1.25 1.34375 1.25 3.796875q0 0.140625 -0.015625 0.4375l-7.34375 0q0.09375 1.625 0.921875 2.484375q0.828125 0.859375 2.0625 0.859375q0.90625 0 1.546875 -0.46875q0.65625 -0.484375 1.046875 -1.546875zm-5.484375 -2.703125l5.5 0q-0.109375 -1.234375 -0.625 -1.859375q-0.796875 -0.96875 -2.078125 -0.96875q-1.140625 0 -1.9375 0.78125q-0.78125 0.765625 -0.859375 2.046875zm9.094482 5.875l0 -9.859375l1.5 0l0 1.5q0.578125 -1.046875 1.0625 -1.375q0.484375 -0.34375 1.078125 -0.34375q0.84375 0 1.71875 0.546875l-0.578125 1.546875q-0.609375 -0.359375 -1.234375 -0.359375q-0.546875 0 -0.984375 0.328125q-0.421875 0.328125 -0.609375 0.90625q-0.28125 0.890625 -0.28125 1.953125l0 5.15625l-1.671875 0zm8.9627075 0l-3.75 -9.859375l1.765625 0l2.125 5.90625q0.34375 0.953125 0.625 1.984375q0.21875 -0.78125 0.625 -1.875l2.1875 -6.015625l1.71875 0l-3.734375 9.859375l-1.5625 0zm6.609375 -11.6875l0 -1.90625l1.671875 0l0 1.90625l-1.671875 0zm0 11.6875l0 -9.859375l1.671875 0l0 9.859375l-1.671875 0zm10.566711 -3.609375l1.640625 0.21875q-0.265625 1.6875 -1.375 2.65625q-1.109375 0.953125 -2.734375 0.953125q-2.015625 0 -3.25 -1.3125q-1.21875 -1.328125 -1.21875 -3.796875q0 -1.59375 0.515625 -2.78125q0.53125 -1.203125 1.609375 -1.796875q1.09375 -0.609375 2.359375 -0.609375q1.609375 0 2.625 0.8125q1.015625 0.8125 1.3125 2.3125l-1.625 0.25q-0.234375 -1.0 -0.828125 -1.5q-0.59375 -0.5 -1.421875 -0.5q-1.265625 0 -2.0625 0.90625q-0.78125 0.90625 -0.78125 2.859375q0 1.984375 0.765625 2.890625q0.765625 0.890625 1.984375 0.890625q0.984375 0 1.640625 -0.59375q0.65625 -0.609375 0.84375 -1.859375zm9.640625 0.4375l1.71875 0.21875q-0.40625 1.5 -1.515625 2.34375q-1.09375 0.828125 -2.8125 0.828125q-2.15625 0 -3.421875 -1.328125q-1.265625 -1.328125 -1.265625 -3.734375q0 -2.484375 1.265625 -3.859375q1.28125 -1.375 3.328125 -1.375q1.984375 0 3.234375 1.34375q1.25 1.34375 1.25 3.796875q0 0.140625 -0.015625 0.4375l-7.34375 0q0.09375 1.625 0.921875 2.484375q0.828125 0.859375 2.0625 0.859375q0.90625 0 1.546875 -0.46875q0.65625 -0.484375 1.046875 -1.546875zm-5.484375 -2.703125l5.5 0q-0.109375 -1.234375 -0.625 -1.859375q-0.796875 -0.96875 -2.078125 -0.96875q-1.140625 0 -1.9375 0.78125q-0.78125 0.765625 -0.859375 2.046875zm8.438171 2.9375l1.65625 -0.265625q0.140625 1.0 0.765625 1.53125q0.640625 0.515625 1.78125 0.515625q1.15625 0 1.703125 -0.46875q0.5625 -0.46875 0.5625 -1.09375q0 -0.5625 -0.484375 -0.890625q-0.34375 -0.21875 -1.703125 -0.5625q-1.84375 -0.46875 -2.5625 -0.796875q-0.703125 -0.34375 -1.078125 -0.9375q-0.359375 -0.609375 -0.359375 -1.328125q0 -0.65625 0.296875 -1.21875q0.3125 -0.5625 0.828125 -0.9375q0.390625 -0.28125 1.0625 -0.484375q0.671875 -0.203125 1.4375 -0.203125q1.171875 0 2.046875 0.34375q0.875 0.328125 1.28125 0.90625q0.421875 0.5625 0.578125 1.515625l-1.625 0.21875q-0.109375 -0.75 -0.65625 -1.171875q-0.53125 -0.4375 -1.5 -0.4375q-1.15625 0 -1.640625 0.390625q-0.484375 0.375 -0.484375 0.875q0 0.328125 0.203125 0.59375q0.203125 0.265625 0.640625 0.4375q0.25 0.09375 1.46875 0.4375q1.765625 0.46875 2.46875 0.765625q0.703125 0.296875 1.09375 0.875q0.40625 0.578125 0.40625 1.4375q0 0.828125 -0.484375 1.578125q-0.484375 0.734375 -1.40625 1.140625q-0.921875 0.390625 -2.078125 0.390625q-1.921875 0 -2.9375 -0.796875q-1.0 -0.796875 -1.28125 -2.359375z" fill-rule="nonzero"></path></g></svg>

